<?xml version="1.0" standalone="no"?>
<!DOCTYPE svg PUBLIC "-//W3C//DTD SVG 1.1//EN" "http://www.w3.org/Graphics/SVG/1.1/DTD/svg11.dtd" >
<svg xmlns="http://www.w3.org/2000/svg">
<metadata>Generated by IcoMoon</metadata>
<defs>
<font id="delphix" horiz-adv-x="1024">
<font-face units-per-em="1024" ascent="960" descent="-64" />
<missing-glyph horiz-adv-x="1024" />
<glyph unicode="&#x20;" horiz-adv-x="512" d="" />
<glyph unicode="&#xe900;" glyph-name="twitter" horiz-adv-x="951" d="M950.997 742.465c-26.55-38.618-59.737-73.013-97.752-100.77 0.603-8.448 0.603-16.896 0.603-25.343 0-257.657-196.109-554.537-554.537-554.537-110.424 0-213.004 31.981-299.293 87.495 15.689-1.81 30.774-2.414 47.066-2.414 91.116 0 174.989 30.774 241.969 83.271-85.685 1.81-157.491 57.927-182.23 135.164 12.069-1.81 24.136-3.017 36.808-3.017 17.499 0 34.998 2.414 51.29 6.638-89.305 18.103-156.284 96.547-156.284 191.282v2.414c25.946-14.482 56.118-23.533 88.099-24.74-52.497 34.998-86.892 94.736-86.892 162.318 0 36.205 9.655 69.392 26.55 98.356 95.942-118.269 240.159-195.506 401.872-203.954-3.017 14.482-4.827 29.567-4.827 44.653 0 107.407 86.892 194.902 194.902 194.902 56.118 0 106.804-23.533 142.405-61.548 44.049 8.448 86.288 24.74 123.7 47.066-14.482-45.256-45.256-83.271-85.685-107.407 39.222 4.224 77.237 15.086 112.235 30.17z" />
<glyph unicode="&#xe901;" glyph-name="caret-down" horiz-adv-x="585" d="M584.98 575.955c0-9.711-3.999-18.851-10.854-25.706l-255.923-255.923c-6.855-6.855-15.995-10.854-25.706-10.854s-18.851 3.999-25.706 10.854l-255.923 255.923c-6.855 6.855-10.854 15.995-10.854 25.706 0 19.994 16.566 36.56 36.56 36.56h511.846c19.994 0 36.56-16.566 36.56-36.56z" />
<glyph unicode="&#xe902;" glyph-name="menu-off" horiz-adv-x="2361" d="M57.021 931.507c-15.708 0-28.443-12.734-28.443-28.443v-910.177c0-15.708 12.734-28.443 28.443-28.443h2246.999c15.708 0 28.443 12.734 28.443 28.443v910.177c0 15.708-12.734 28.443-28.443 28.443h-2246.999zM57.021 959.95h2246.999c31.417 0 56.886-25.469 56.886-56.886v-910.177c0-31.417-25.469-56.886-56.886-56.886h-2246.999c-31.417 0-56.886 25.469-56.886 56.886v910.177c0 31.417 25.469 56.886 56.886 56.886zM1219.061 588.768h-40.318l-85.244-142.073-85.628 142.073h-40.318v-268.787h35.71v209.654l87.932-145.913h4.608l87.932 146.297v-210.038h35.326v268.787zM1312.368 353.772v85.244h113.274v33.406h-113.274v82.556h122.874v33.79h-158.584v-268.787h160.504v33.79h-124.794zM1647.2 588.768v-200.438l-138.233 200.438h-28.799v-268.787h35.71v200.822l138.233-200.822h28.799v268.787h-35.71zM1838.038 314.99c58.749 0 100.603 36.862 100.603 95.227v178.551h-35.326v-177.015c0-37.246-22.271-61.821-65.277-61.821s-65.277 24.575-65.277 61.821v177.015h-35.71v-178.551c0-58.365 42.238-95.227 100.987-95.227zM441.002 575.969h298.652v-56.886h-298.652zM441.002 476.418h298.652v-56.886h-298.652zM441.002 376.868h298.652v-56.886h-298.652z" />
<glyph unicode="&#xe903;" glyph-name="user" horiz-adv-x="731" d="M730.982 160.749c0-83.377-54.823-151.335-121.639-151.335h-487.698c-66.816 0-121.639 67.958-121.639 151.335 0 150.193 37.12 323.8 186.741 323.8 46.257-45.115 109.076-73.098 178.746-73.098s132.489 27.983 178.746 73.098c149.621 0 186.741-173.607 186.741-323.8zM584.786 667.293c0-121.068-98.225-219.293-219.293-219.293s-219.293 98.225-219.293 219.293 98.225 219.293 219.293 219.293 219.293-98.225 219.293-219.293z" />
<glyph unicode="&#xe904;" glyph-name="read-more" d="M970.831 465.723l-1.969 1.969-192.985 216.615c-13.785 15.754-39.385 17.723-55.138 3.938l-9.846-7.877c-15.754-13.785-17.723-39.385-3.938-55.138l129.969-145.723h-756.185c-27.569 0-49.231-21.662-49.231-49.231s21.662-49.231 49.231-49.231h736.492l-114.215-120.123c-15.754-15.754-13.785-41.354 1.969-55.138l9.846-9.846c15.754-15.754 41.354-13.785 55.138 1.969l202.831 212.677c13.785 15.754 13.785 41.354-1.969 55.138z" />
<glyph unicode="&#xe905;" glyph-name="facebook" horiz-adv-x="602" d="M566.837 952.601v-162.454h-96.611c-75.689 0-89.843-36.306-89.843-88.612v-116.303h180.3l-23.999-182.146h-156.301v-467.057h-188.299v467.057h-156.916v182.146h156.916v134.148c0 155.685 95.38 240.605 234.451 240.605 66.458 0 123.687-4.922 140.302-7.384z" />
<glyph unicode="&#xe906;" glyph-name="left-arrow" d="M334.832 98.54c13.003-13.003 35.759-13.003 52.013 0 13.003 13.003 13.003 35.759 0 52.013l-260.063 260.063h864.711c19.505 0 35.759 16.254 35.759 35.759s-16.254 35.759-35.759 35.759h-867.962l260.063 260.063c13.003 13.003 13.003 39.010 0 52.013s-39.010 13.003-52.013 0l-325.079-325.079c-13.003-13.003-13.003-35.759 0-52.013l328.33-318.578z" />
<glyph unicode="&#xe907;" glyph-name="triangle-down" horiz-adv-x="767" d="M0 639.748l383.493-383.493 383.493 383.493h-766.987z" />
<glyph unicode="&#xe908;" glyph-name="right-arrow" d="M689.168 797.46c-13.003 13.003-35.759 13.003-52.013 0-13.003-13.003-13.003-35.759 0-52.013l260.063-260.063h-861.46c-19.505 0-35.759-16.254-35.759-35.759s16.254-35.759 35.759-35.759h864.711l-260.063-260.063c-13.003-13.003-13.003-39.010 0-52.013s39.010-13.003 52.013 0l325.079 325.079c13.003 13.003 13.003 35.759 0 52.013l-328.33 318.578z" />
<glyph unicode="&#xe909;" glyph-name="dpx-calendar" d="M1006.933-63.97h-989.837c-10.24 0-17.066 6.827-17.066 17.066v802.109c0 10.24 6.827 17.066 17.066 17.066h989.837c10.24 0 17.066-6.827 17.066-17.066v-802.109c0-10.24-6.827-17.066-17.066-17.066zM34.162-29.838h955.704v767.977h-955.704v-767.977zM853.338 738.139h-682.646c-8.533 0-15.36 5.12-17.066 13.653s1.707 15.36 8.533 18.772c1.707 1.707 187.727 100.69 286.711 162.128 15.36 17.066 39.252 27.306 63.145 27.306s47.786-10.24 63.145-27.306c98.984-61.438 285.004-162.128 286.711-162.128 6.827-3.413 10.24-11.947 8.533-18.772s-8.533-13.653-17.066-13.653zM237.25 772.272h547.823c-51.198 27.306-126.289 69.971-187.727 105.81 0-1.707 0-3.413 0-3.413s0 0 0 0 0 0 0 0c0-47.786-37.546-85.33-85.33-85.33s-85.33 37.546-85.33 85.33c0 0 0 0 0 0s0 0 0 0 0 0 0 0c0 1.707 0 3.413 0 3.413-61.438-35.839-136.529-78.505-189.434-105.81zM460.817 874.669c0-29.012 22.186-51.198 51.198-51.198s51.198 22.186 51.198 51.198c0 0 0 0 0 0s0 0 0 0 0 0 0 0 0 0 0 0 0 0 0 0 0 0 0 0 0 0 0 0 0 0 0 0v0c0 0 0 1.707 0 1.707 0 15.36-6.827 25.599-13.653 32.426 0 0-1.707 1.707-1.707 1.707-8.533 10.24-22.186 15.36-35.839 15.36s-27.306-5.12-35.839-15.36c0 0-1.707-1.707-1.707-1.707-6.827-6.827-13.653-17.066-13.653-32.426v0c0 0 0 0 0 0s0 0 0 0 0 0 0 0 0 0 0 0v0c0 0 0 0 0-1.707v0c0 0 0 0 0 0s0 0 0 0 0 0 0 0 0 0 0 0 0 0 0 0 0 0 0 0 0 0 0 0 0 0 0 0 0 0 0 0zM409.618 482.147c0-10.24-6.827-17.066-17.066-17.066s-17.066 6.827-17.066 17.066 6.827 17.066 17.066 17.066 17.066-6.827 17.066-17.066zM529.081 482.147c0-10.24-6.827-17.066-17.066-17.066s-17.066 6.827-17.066 17.066 6.827 17.066 17.066 17.066 17.066-6.827 17.066-17.066zM648.544 482.147c0-10.24-6.827-17.066-17.066-17.066s-17.066 6.827-17.066 17.066 6.827 17.066 17.066 17.066 17.066-6.827 17.066-17.066zM768.007 482.147c0-10.24-6.827-17.066-17.066-17.066s-17.066 6.827-17.066 17.066 6.827 17.066 17.066 17.066 17.066-6.827 17.066-17.066zM887.471 482.147c0-10.24-6.827-17.066-17.066-17.066s-17.066 6.827-17.066 17.066 6.827 17.066 17.066 17.066 17.066-6.827 17.066-17.066zM170.692 345.618c0-10.24-6.827-17.066-17.066-17.066s-17.066 6.827-17.066 17.066 6.827 17.066 17.066 17.066 17.066-6.827 17.066-17.066zM290.155 345.618c0-10.24-6.827-17.066-17.066-17.066s-17.066 6.827-17.066 17.066 6.827 17.066 17.066 17.066 17.066-6.827 17.066-17.066zM409.618 345.618c0-10.24-6.827-17.066-17.066-17.066s-17.066 6.827-17.066 17.066 6.827 17.066 17.066 17.066 17.066-6.827 17.066-17.066zM529.081 345.618c0-10.24-6.827-17.066-17.066-17.066s-17.066 6.827-17.066 17.066 6.827 17.066 17.066 17.066 17.066-6.827 17.066-17.066zM648.544 345.618c0-10.24-6.827-17.066-17.066-17.066s-17.066 6.827-17.066 17.066 6.827 17.066 17.066 17.066 17.066-6.827 17.066-17.066zM768.007 345.618c0-10.24-6.827-17.066-17.066-17.066s-17.066 6.827-17.066 17.066 6.827 17.066 17.066 17.066 17.066-6.827 17.066-17.066zM887.471 345.618c0-10.24-6.827-17.066-17.066-17.066s-17.066 6.827-17.066 17.066 6.827 17.066 17.066 17.066 17.066-6.827 17.066-17.066zM170.692 226.155c0-10.24-6.827-17.066-17.066-17.066s-17.066 6.827-17.066 17.066 6.827 17.066 17.066 17.066 17.066-6.827 17.066-17.066zM290.155 226.155c0-10.24-6.827-17.066-17.066-17.066s-17.066 6.827-17.066 17.066 6.827 17.066 17.066 17.066 17.066-6.827 17.066-17.066zM409.618 226.155c0-10.24-6.827-17.066-17.066-17.066s-17.066 6.827-17.066 17.066 6.827 17.066 17.066 17.066 17.066-6.827 17.066-17.066zM529.081 226.155c0-10.24-6.827-17.066-17.066-17.066s-17.066 6.827-17.066 17.066 6.827 17.066 17.066 17.066 17.066-6.827 17.066-17.066zM648.544 226.155c0-10.24-6.827-17.066-17.066-17.066s-17.066 6.827-17.066 17.066 6.827 17.066 17.066 17.066 17.066-6.827 17.066-17.066zM768.007 226.155c0-10.24-6.827-17.066-17.066-17.066s-17.066 6.827-17.066 17.066 6.827 17.066 17.066 17.066 17.066-6.827 17.066-17.066zM887.471 226.155c0-10.24-6.827-17.066-17.066-17.066s-17.066 6.827-17.066 17.066 6.827 17.066 17.066 17.066 17.066-6.827 17.066-17.066zM170.692 89.626c0-10.24-6.827-17.066-17.066-17.066s-17.066 6.827-17.066 17.066 6.827 17.066 17.066 17.066 17.066-6.827 17.066-17.066zM290.155 89.626c0-10.24-6.827-17.066-17.066-17.066s-17.066 6.827-17.066 17.066 6.827 17.066 17.066 17.066 17.066-6.827 17.066-17.066zM409.618 89.626c0-10.24-6.827-17.066-17.066-17.066s-17.066 6.827-17.066 17.066 6.827 17.066 17.066 17.066 17.066-6.827 17.066-17.066zM529.081 89.626c0-10.24-6.827-17.066-17.066-17.066s-17.066 6.827-17.066 17.066 6.827 17.066 17.066 17.066 17.066-6.827 17.066-17.066zM648.544 89.626c0-10.24-6.827-17.066-17.066-17.066s-17.066 6.827-17.066 17.066 6.827 17.066 17.066 17.066 17.066-6.827 17.066-17.066zM1006.933 618.677h-989.837c-10.24 0-17.066 6.827-17.066 17.066s6.827 17.066 17.066 17.066h989.837c10.24 0 17.066-6.827 17.066-17.066s-6.827-17.066-17.066-17.066z" />
<glyph unicode="&#xe90a;" glyph-name="dpx-filter-text" d="M1002.667 960h-853.333c-11.776 0-21.333-9.557-21.333-21.333v-149.333h-106.667c-11.776 0-21.333-9.557-21.333-21.333v-810.667c0-11.776 9.557-21.333 21.333-21.333h810.667c11.776 0 21.333 9.557 21.333 21.333v106.667h149.333c11.776 0 21.333 9.557 21.333 21.333v853.333c0 11.776-9.557 21.333-21.333 21.333zM810.667-21.333h-768v768h85.333v-661.333c0-11.776 9.557-21.333 21.333-21.333h661.333v-85.333zM981.333 106.667h-810.667v810.667h810.667v-810.667zM298.667 789.333h554.667v-42.667h-554.667zM298.667 704h554.667v-42.667h-554.667zM298.667 618.667h554.667v-42.667h-554.667zM298.667 533.333h554.667v-42.667h-554.667zM298.667 448h554.667v-42.667h-554.667zM298.667 362.667h554.667v-42.667h-554.667zM298.667 277.333h256v-42.667h-256z" />
<glyph unicode="&#xe90b;" glyph-name="window-list-user" d="M917.316 917.303h-810.632c-58.834 0-106.662-47.827-106.662-106.662v-597.307c0-58.834 47.827-106.662 106.662-106.662h405.316c11.775 0 21.332 9.557 21.332 21.332s-9.557 21.332-21.332 21.332h-405.316c-35.283 0-63.997 28.714-63.997 63.997v447.981h938.626v-170.66c0-11.775 9.557-21.332 21.332-21.332s21.332 9.557 21.332 21.332v319.986c0 58.834-47.827 106.662-106.662 106.662zM42.687 703.978v106.662c0 35.283 28.714 63.997 63.997 63.997h810.632c35.283 0 63.997-28.714 63.997-63.997v-106.662h-938.626zM200.85 819.477c16.661-16.661 16.661-43.675 0-60.337s-43.675-16.661-60.337 0c-16.661 16.661-16.661 43.675 0 60.337s43.675 16.661 60.337 0zM328.845 819.477c16.661-16.661 16.661-43.675 0-60.337s-43.675-16.661-60.337 0c-16.661 16.661-16.661 43.675 0 60.337s43.675 16.661 60.337 0zM456.839 819.477c16.661-16.661 16.661-43.675 0-60.337s-43.675-16.661-60.337 0c-16.661 16.661-16.661 43.675 0 60.337s43.675 16.661 60.337 0zM362.673 533.319h426.649c11.775 0 21.332 9.557 21.332 21.332s-9.557 21.332-21.332 21.332h-426.649c-11.775 0-21.332-9.557-21.332-21.332s9.557-21.332 21.332-21.332zM234.679 575.983h-42.665c-11.775 0-21.332-9.557-21.332-21.332s9.557-21.332 21.332-21.332h42.665c11.775 0 21.332 9.557 21.332 21.332s-9.557 21.332-21.332 21.332zM533.332 447.989h-170.66c-11.775 0-21.332-9.557-21.332-21.332s9.557-21.332 21.332-21.332h170.66c11.775 0 21.332 9.557 21.332 21.332s-9.557 21.332-21.332 21.332zM234.679 447.989h-42.665c-11.775 0-21.332-9.557-21.332-21.332s9.557-21.332 21.332-21.332h42.665c11.775 0 21.332 9.557 21.332 21.332s-9.557 21.332-21.332 21.332zM533.332 319.995h-170.66c-11.775 0-21.332-9.557-21.332-21.332s9.557-21.332 21.332-21.332h170.66c11.775 0 21.332 9.557 21.332 21.332s-9.557 21.332-21.332 21.332zM234.679 319.995h-42.665c-11.775 0-21.332-9.557-21.332-21.332s9.557-21.332 21.332-21.332h42.665c11.775 0 21.332 9.557 21.332 21.332s-9.557 21.332-21.332 21.332zM891.547 197.163c34.814 25.258 57.769 65.96 57.769 112.166 0 76.456-62.205 138.661-138.661 138.661s-138.661-62.205-138.661-138.661c0-46.206 22.954-86.908 57.769-112.166-77.565-31.914-132.431-108.155-132.431-197.154 0-11.775 9.557-21.332 21.332-21.332h383.983c11.775 0 21.332 9.557 21.332 21.332 0 88.999-54.867 165.241-132.431 197.154zM714.658 309.329c0 52.905 43.091 95.996 95.996 95.996s95.996-43.091 95.996-95.996c0-52.905-43.091-95.996-95.996-95.996s-95.996 43.091-95.996 95.996zM641.317 21.341c10.539 84.092 82.471 149.327 169.337 149.327s158.798-65.234 169.337-149.327h-338.673z" />
<glyph unicode="&#xe90c;" glyph-name="dpx-wrap-text-around" d="M1002.667 960h-981.333c-11.776 0-21.333-9.557-21.333-21.333v-981.333c0-11.776 9.557-21.333 21.333-21.333h981.333c11.776 0 21.333 9.557 21.333 21.333v981.333c0 11.776-9.557 21.333-21.333 21.333zM981.333-21.333h-938.667v938.667h938.667v-938.667zM277.333 704h170.667c11.776 0 21.333 9.557 21.333 21.333s-9.557 21.333-21.333 21.333h-170.667c-11.776 0-21.333-9.557-21.333-21.333s9.557-21.333 21.333-21.333zM149.333 576h298.667c11.776 0 21.333 9.557 21.333 21.333s-9.557 21.333-21.333 21.333h-298.667c-11.776 0-21.333-9.557-21.333-21.333s9.557-21.333 21.333-21.333zM149.333 448h298.667c11.776 0 21.333 9.557 21.333 21.333s-9.557 21.333-21.333 21.333h-298.667c-11.776 0-21.333-9.557-21.333-21.333s9.557-21.333 21.333-21.333zM149.333 320h725.333c11.776 0 21.333 9.557 21.333 21.333s-9.557 21.333-21.333 21.333h-725.333c-11.776 0-21.333-9.557-21.333-21.333s9.557-21.333 21.333-21.333zM149.333 192h512c11.776 0 21.333 9.557 21.333 21.333s-9.557 21.333-21.333 21.333h-512c-11.776 0-21.333-9.557-21.333-21.333s9.557-21.333 21.333-21.333zM533.333 448h341.333c11.776 0 21.333 9.557 21.333 21.333v341.333c0 11.776-9.557 21.333-21.333 21.333h-341.333c-11.776 0-21.333-9.557-21.333-21.333v-341.333c0-11.776 9.557-21.333 21.333-21.333zM554.667 789.333h298.667v-298.667h-298.667v298.667z" />
<glyph unicode="&#xe90d;" glyph-name="video-clip-1" d="M1002.667 832h-981.333c-11.776 0-21.333-9.557-21.333-21.333v-725.333c0-11.776 9.557-21.333 21.333-21.333h981.333c11.776 0 21.333 9.557 21.333 21.333v725.333c0 11.776-9.557 21.333-21.333 21.333zM682.667 192v-85.333h-341.333v85.333h341.333zM42.667 234.667v426.667h938.667v-426.667h-938.667zM341.333 704v85.333h341.333v-85.333h-341.333zM981.333 704h-256v85.333h256v-85.333zM42.667 789.333h256v-85.333h-256v85.333zM42.667 192h256v-85.333h-256v85.333zM981.333 106.667h-256v85.333h256v-85.333zM648.832 467.413l-234.667 106.667c-6.571 3.029-14.251 2.475-20.395-1.493s-9.771-10.667-9.771-17.92v-213.333c0-7.253 3.669-13.995 9.771-17.92 3.541-2.304 7.509-3.413 11.563-3.413 2.987 0 6.016 0.64 8.832 1.92l234.667 106.667c7.595 3.456 12.501 11.051 12.501 19.413s-4.907 15.957-12.501 19.413zM426.667 374.443v147.072l161.792-73.515-161.792-73.557z" />
<glyph unicode="&#xe90e;" glyph-name="dpx-globe" d="M512.213 959.985c-7.467 0-14.891-0.128-22.186-0.469-279.331-11.264-490.012-226.596-490.012-500.849 0-288.204 229.070-522.651 510.62-522.651 283.084 0 513.35 230.478 513.35 513.819 0 281.293-229.582 510.15-511.772 510.15zM43.193 448h236.58c2.432-70.27 15.531-141.692 39.295-213.327h-221.988c-33.066 63.955-52.222 136.401-53.886 213.327zM279.516 490.666h-235.3c5.248 78.675 29.439 151.206 68.777 213.327h207.738c-25.428-68.819-39.21-140.284-41.215-213.327zM364.676 703.992h295.074c27.732-68.691 42.239-140.199 44.458-213.327h-383.988c2.176 73.129 16.682 144.636 44.458 213.327zM320.433 448h383.561c-2.645-70.057-16.555-141.393-42.239-213.327h-299.084c-25.727 71.934-39.636 143.271-42.239 213.327zM744.612 448h236.622c-0.299-76.841-19.327-149.286-52.393-213.327h-223.566c23.807 71.635 36.906 143.057 39.338 213.327zM744.868 490.666c-2.005 73.043-15.787 144.508-41.215 213.327h201.722c40.831-62.462 67.027-135.121 73.854-213.327h-234.361zM874.314 746.658h-188.111c-25.642 57.171-59.475 112.253-101.8 164.518 116.049-18.004 218.361-77.993 289.911-164.518zM523.819 916.679c48.724-53.886 87.293-110.845 116.348-170.022h-255.907c29.098 59.305 67.795 116.391 116.647 170.406 3.755 0.085 7.509 0.256 11.307 0.256 3.925 0 7.723-0.512 11.605-0.64zM440.791 912.071c-42.708-52.521-76.798-107.901-102.568-165.414h-194.895c71.251 87.805 175.654 148.177 297.463 165.414zM121.783 192.008h212.517c27.306-69.801 64.851-139.516 112.381-208.335-135.121 19.071-252.109 97.064-324.897 208.335zM501.931-20.893c-52.137 70.739-92.669 141.948-122.449 212.901h265.379c-29.738-70.91-70.27-142.076-122.321-212.73-4.011-0.128-7.893-0.597-11.904-0.597-2.987 0-5.803 0.384-8.704 0.427zM577.875-15.986c47.402 68.691 84.904 138.321 112.125 207.994h214.138c-72.489-110.461-190.031-188.325-326.262-207.994z" />
<glyph unicode="&#xe90f;" glyph-name="dpx-search" d="M1017.771-27.563l-384.384 384.384c57.003 64.085 91.947 148.181 91.947 240.512 0 199.979-162.688 362.667-362.667 362.667s-362.667-162.688-362.667-362.667c0-199.979 162.688-362.667 362.667-362.667 92.331 0 176.427 34.944 240.512 91.989l384.384-384.384c8.32-8.32 21.845-8.32 30.165 0 8.363 8.32 8.363 21.803 0.043 30.165zM42.667 597.333c0 176.469 143.531 320 320 320s320-143.531 320-320c0-176.469-143.531-320-320-320s-320 143.531-320 320z" />
<glyph unicode="&#xe910;" glyph-name="dpx-news-article" d="M1002.667 874.667h-981.334c-11.776 0-21.333-9.557-21.333-21.333v-768.001c0-11.776 9.557-21.333 21.333-21.333h981.334c11.776 0 21.333 9.557 21.333 21.333v768.001c0 11.776-9.557 21.333-21.333 21.333zM981.333 106.667h-938.668v725.334h938.668v-725.334zM106.667 576h810.668c11.776 0 21.333 9.557 21.333 21.333v128c0 11.776-9.557 21.333-21.333 21.333h-810.668c-11.776 0-21.333-9.557-21.333-21.333v-128c0-11.776 9.557-21.333 21.333-21.333zM128 704h768.001v-85.333h-768.001v85.333zM448 490.667h-256c-11.776 0-21.333-9.557-21.333-21.333s9.557-21.333 21.333-21.333h256c11.776 0 21.333 9.557 21.333 21.333s-9.557 21.333-21.333 21.333zM448 405.333h-298.667c-11.776 0-21.333-9.557-21.333-21.333s9.557-21.333 21.333-21.333h298.667c11.776 0 21.333 9.557 21.333 21.333s-9.557 21.333-21.333 21.333zM448 320h-298.667c-11.776 0-21.333-9.557-21.333-21.333s9.557-21.333 21.333-21.333h298.667c11.776 0 21.333 9.557 21.333 21.333s-9.557 21.333-21.333 21.333zM448 234.667h-298.667c-11.776 0-21.333-9.557-21.333-21.333s9.557-21.333 21.333-21.333h298.667c11.776 0 21.333 9.557 21.333 21.333s-9.557 21.333-21.333 21.333zM874.667 490.667h-298.667c-11.776 0-21.333-9.557-21.333-21.333s9.557-21.333 21.333-21.333h298.667c11.776 0 21.333 9.557 21.333 21.333s-9.557 21.333-21.333 21.333zM874.667 405.333h-298.667c-11.776 0-21.333-9.557-21.333-21.333s9.557-21.333 21.333-21.333h298.667c11.776 0 21.333 9.557 21.333 21.333s-9.557 21.333-21.333 21.333zM874.667 320h-298.667c-11.776 0-21.333-9.557-21.333-21.333s9.557-21.333 21.333-21.333h298.667c11.776 0 21.333 9.557 21.333 21.333s-9.557 21.333-21.333 21.333zM832 234.667h-256c-11.776 0-21.333-9.557-21.333-21.333s9.557-21.333 21.333-21.333h256c11.776 0 21.333 9.557 21.333 21.333s-9.557 21.333-21.333 21.333z" />
<glyph unicode="&#xe911;" glyph-name="grid" d="M0.062 703.961h255.977v255.977h-255.977v-255.977zM384.028 703.961h255.977v255.977h-255.977v-255.977zM767.993 959.938v-255.977h255.977v255.977h-255.977zM0.062 319.996h255.977v255.977h-255.977v-255.977zM384.028 319.996h255.977v255.977h-255.977v-255.977zM767.993 319.996h255.977v255.977h-255.977v-255.977zM0.062-63.97h255.977v255.977h-255.977v-255.977zM384.028-63.97h255.977v255.977h-255.977v-255.977zM767.993-63.97h255.977v255.977h-255.977v-255.977z" />
<glyph unicode="&#xe912;" glyph-name="sphere" d="M512.006 959.996c-282.763 0-511.99-229.226-511.99-511.99s229.226-511.99 511.99-511.99c282.765 0 511.99 229.224 511.99 511.99 0 282.763-229.224 511.99-511.99 511.99zM801.697 277.343c9.152 43.15 14.929 88.95 16.808 136.531h135.94c-3.558-47.141-14.532-92.92-32.725-136.531h-120.023zM222.316 618.67c-9.152-43.15-14.929-88.95-16.808-136.531h-135.938c3.558 47.139 14.53 92.92 32.723 136.531h120.023zM731.774 618.67c10.255-43.692 16.424-89.442 18.432-136.531h-204.066v136.531h185.635zM546.139 686.935v199.823c15.562-4.529 30.98-12.128 46.109-22.794 28.354-19.989 55.478-50.781 78.441-89.050 15.874-26.455 29.602-55.909 41.062-87.981h-165.612zM353.324 774.916c22.963 38.269 50.085 69.063 78.441 89.050 15.127 10.666 30.547 18.265 46.109 22.794v-199.825h-165.612c11.462 32.070 25.19 61.524 41.062 87.981zM477.874 618.67v-136.531h-204.064c2.005 47.088 8.177 92.839 18.429 136.531h185.635zM102.295 277.343c-18.193 43.611-29.164 89.389-32.723 136.531h135.938c1.879-47.581 7.656-93.381 16.808-136.531h-120.023zM273.81 413.874h204.064v-136.531h-185.635c-10.253 43.69-16.424 89.442-18.429 136.531zM477.874 209.078v-199.825c-15.56 4.529-30.98 12.13-46.109 22.794-28.356 19.989-55.48 50.783-78.441 89.050-15.874 26.457-29.599 55.911-41.064 87.981h165.614zM670.689 121.097c-22.963-38.267-50.088-69.061-78.441-89.050-15.129-10.664-30.547-18.265-46.109-22.794v199.825h165.614c-11.462-32.070-25.19-61.524-41.064-87.981zM546.139 277.343v136.531h204.064c-2.005-47.088-8.177-92.841-18.432-136.531h-185.633zM818.505 482.139c-1.879 47.581-7.656 93.381-16.808 136.531h120.023c18.193-43.611 29.166-89.391 32.725-136.531h-135.94zM886.034 686.935h-102.291c-19.88 62.678-47.333 117.645-80.335 161.52 45.371-21.696 86.46-50.789 122.359-86.688 22.912-22.909 43.052-47.933 60.268-74.832zM198.246 761.766c35.901 35.901 76.99 64.993 122.359 86.688-33.004-43.875-60.453-98.842-80.335-161.52h-102.289c17.214 26.899 37.356 51.922 60.265 74.832zM137.981 209.078h102.289c19.882-62.678 47.333-117.645 80.338-161.522-45.371 21.696-86.46 50.789-122.359 86.691-22.912 22.909-43.054 47.933-60.268 74.832zM825.766 134.246c-35.899-35.901-76.99-64.995-122.359-86.691 33.004 43.875 60.455 98.844 80.335 161.522h102.291c-17.216-26.899-37.356-51.922-60.268-74.832z" />
<glyph unicode="&#xe913;" glyph-name="search2" d="M637.663 227.25c-66.005-47.032-146.765-74.695-233.988-74.695-222.937 0-403.663 180.727-403.663 403.663s180.727 403.663 403.663 403.663c222.937 0 403.663-180.727 403.663-403.663 0-87.223-27.664-167.983-74.695-233.988l265.222-265.222c26.129-26.129 25.912-67.937-0.009-93.858l-1.113-1.113c-25.854-25.854-67.942-25.925-93.858-0.009l-265.222 265.222zM403.674 247.534c170.481 0 308.684 138.203 308.684 308.684s-138.203 308.684-308.684 308.684c-170.481 0-308.684-138.203-308.684-308.684s138.203-308.684 308.684-308.684v0z" />
<glyph unicode="&#xe914;" glyph-name="close" d="M1023.975 856.893l-408.893-408.893 408.893-408.893-103.082-103.082-408.893 408.893-408.893-408.893-103.082 103.082 408.893 408.893-408.893 408.893 103.082 103.082 408.893-408.893 408.893 408.893z" />
<glyph unicode="&#xe915;" glyph-name="menu" d="M0.004 789.335h1023.971v-114.663h-1023.971v114.663zM0.004 392.013v111.997h1023.971v-111.997h-1023.971zM0.004 106.687v114.663h1023.971v-114.663h-1023.971z" />
<glyph unicode="&#xe916;" glyph-name="minus" d="M1023.949 448c0-47.187-4.096-85.328-51.282-85.328h-921.37c-47.1 0-51.282 38.141-51.282 85.328s4.181 85.328 51.282 85.328h921.455c47.1 0 51.197-38.141 51.197-85.328z" />
<glyph unicode="&#xe917;" glyph-name="play-button-2" d="M511.989-63.967c-282.313 0-511.978 229.665-511.978 511.978s229.665 511.978 511.978 511.978c282.313 0 511.978-229.665 511.978-511.978s-229.665-511.978-511.978-511.978zM511.989 917.324c-258.762 0-469.313-210.551-469.313-469.313s210.551-469.313 469.313-469.313c258.762 0 469.313 210.551 469.313 469.313s-210.551 469.313-469.313 469.313zM362.662 234.687c-3.883 0-7.808 1.067-11.221 3.157-6.272 3.925-10.112 10.795-10.112 18.175v383.983c0 7.381 3.84 14.25 10.112 18.175 6.272 3.883 14.164 4.224 20.735 0.896l383.983-191.992c7.253-3.627 11.818-11.008 11.818-19.071s-4.565-15.444-11.775-19.071l-383.983-191.992c-3.029-1.493-6.272-2.261-9.557-2.261zM383.995 605.487v-314.994l314.951 157.518-314.951 157.476z" />
<glyph unicode="&#xe918;" glyph-name="community" d="M447.999 405.333c-4.267 0-12.8 4.267-17.067 4.267l-119.467 123.733h-34.133c-34.133 0-64 29.867-64 64v298.667c0 34.133 29.867 64 64 64h469.333c34.133 0 64-29.867 64-64v-298.667c0-34.133-29.867-64-64-64h-277.333v-106.667c0-8.533-4.267-17.067-12.8-21.333-4.267 0-4.267 0-8.533 0zM277.332 917.333c-12.8 0-21.333-8.533-21.333-21.333v-298.667c0-12.8 8.533-21.333 21.333-21.333h42.667c4.267 0 12.8 0 17.067-4.267l89.6-89.6v72.533c0 12.8 8.533 21.333 21.333 21.333h298.667c12.8 0 21.333 8.533 21.333 21.333v298.667c0 12.8-8.533 21.333-21.333 21.333h-469.333zM831.999 234.667c-72.533 0-128 55.467-128 128s55.467 128 128 128 128-55.467 128-128-55.467-128-128-128zM831.999 448c-46.933 0-85.333-38.4-85.333-85.333s38.4-85.333 85.333-85.333 85.333 38.4 85.333 85.333c0 46.933-38.4 85.333-85.333 85.333zM1002.666 64h-341.333c-12.8 0-21.333 8.533-21.333 21.333 0 106.667 85.333 192 192 192s192-85.333 192-192c0-12.8-8.533-21.333-21.333-21.333zM682.666 106.667h298.667c-8.533 72.533-72.533 128-149.333 128s-136.533-55.467-149.333-128zM191.999 234.667c-72.533 0-128 55.467-128 128s55.467 128 128 128 128-55.467 128-128-55.467-128-128-128zM191.999 448c-46.933 0-85.333-38.4-85.333-85.333s38.4-85.333 85.333-85.333 85.333 38.4 85.333 85.333c0 46.933-38.4 85.333-85.333 85.333zM362.666 64h-341.333c-12.8 0-21.333 8.533-21.333 21.333 0 106.667 85.333 192 192 192s192-85.333 192-192c0-12.8-8.533-21.333-21.333-21.333zM42.666 106.667h298.667c-8.533 72.533-72.533 128-149.333 128s-136.533-55.467-149.333-128zM511.999 106.667c-72.533 0-128 55.467-128 128s55.467 128 128 128 128-55.467 128-128-55.467-128-128-128zM511.999 320c-46.933 0-85.333-38.4-85.333-85.333s38.4-85.333 85.333-85.333c46.933 0 85.333 38.4 85.333 85.333s-38.4 85.333-85.333 85.333zM682.666-64h-341.333c-12.8 0-21.333 8.533-21.333 21.333 0 106.667 85.333 192 192 192s192-85.333 192-192c0-12.8-8.533-21.333-21.333-21.333zM362.666-21.333h294.4c-8.533 72.533-72.533 128-149.333 128-72.533 0-132.267-55.467-145.067-128zM661.332 832h-298.667c-12.8 0-21.333 8.533-21.333 21.333s8.533 21.333 21.333 21.333h298.667c8.533 0 21.333-8.533 21.333-21.333s-12.8-21.333-21.333-21.333zM661.332 746.667h-298.667c-12.8 0-21.333 8.533-21.333 21.333s8.533 21.333 21.333 21.333h298.667c8.533 0 21.333-8.533 21.333-21.333s-12.8-21.333-21.333-21.333zM661.332 661.333h-298.667c-12.8 0-21.333 8.533-21.333 21.333s8.533 21.333 21.333 21.333h298.667c8.533 0 21.333-8.533 21.333-21.333s-12.8-21.333-21.333-21.333z" />
<glyph unicode="&#xe919;" glyph-name="documentation" d="M917.332 490.667h-341.333c-12.8 0-21.333 8.533-21.333 21.333v426.667c0 12.8 8.533 21.333 21.333 21.333h213.333c4.267 0 12.8-4.267 17.067-4.267l128-128c0-4.267 4.267-12.8 4.267-17.067v-298.667c0-12.8-8.533-21.333-21.333-21.333zM597.332 533.333h298.667v268.8l-115.2 115.2h-183.467v-384zM917.332 789.333h-128c-12.8 0-21.333 8.533-21.333 21.333v128c0 12.8 8.533 21.333 21.333 21.333s21.333-8.533 21.333-21.333v-106.667h106.667c12.8 0 21.333-8.533 21.333-21.333s-8.533-21.333-21.333-21.333zM448 490.667h-341.333c-12.8 0-21.333 8.533-21.333 21.333v426.667c0 12.8 8.533 21.333 21.333 21.333h213.333c4.267 0 12.8-4.267 17.067-4.267l128-128c0-4.267 4.267-12.8 4.267-17.067v-298.667c0-12.8-8.533-21.333-21.333-21.333zM128 533.333h298.667v268.8l-115.2 115.2h-183.467v-384zM448 789.333h-128c-12.8 0-21.333 8.533-21.333 21.333v128c0 12.8 8.533 21.333 21.333 21.333s21.333-8.533 21.333-21.333v-106.667h106.667c12.8 0 21.333-8.533 21.333-21.333s-8.533-21.333-21.333-21.333zM917.332-63.999h-341.333c-12.8 0-21.333 8.533-21.333 21.333v426.667c0 12.8 8.533 21.333 21.333 21.333h213.333c4.267 0 12.8-4.267 17.067-4.267l128-128c4.267-4.267 4.267-8.533 4.267-17.067v-298.667c0-12.8-8.533-21.333-21.333-21.333zM597.332-21.332h298.667v268.8l-115.2 115.2h-183.467v-384zM917.332 234.668h-128c-12.8 0-21.333 8.533-21.333 21.333v128c0 12.8 8.533 21.333 21.333 21.333s21.333-8.533 21.333-21.333v-106.667h106.667c12.8 0 21.333-8.533 21.333-21.333s-8.533-21.333-21.333-21.333zM448-63.999h-341.333c-12.8 0-21.333 8.533-21.333 21.333v426.667c0 12.8 8.533 21.333 21.333 21.333h213.333c4.267 0 12.8-4.267 17.067-4.267l128-128c4.267-4.267 4.267-8.533 4.267-17.067v-298.667c0-12.8-8.533-21.333-21.333-21.333zM128-21.332h298.667v268.8l-115.2 115.2h-183.467v-384zM448 234.668h-128c-12.8 0-21.333 8.533-21.333 21.333v128c0 12.8 8.533 21.333 21.333 21.333s21.333-8.533 21.333-21.333v-106.667h106.667c12.8 0 21.333-8.533 21.333-21.333s-8.533-21.333-21.333-21.333z" />
<glyph unicode="&#xe91a;" glyph-name="events" d="M447.998 106.667c-4.267 0-12.8 4.267-17.067 4.267l-149.333 149.333c-8.533 8.533-8.533 21.333 0 29.867s21.333 8.533 29.867 0l132.267-132.267 302.933 324.267c8.533 8.533 21.333 8.533 29.867 0s8.533-21.333 0-29.867l-320-341.333c4.267 0-4.267-4.267-8.533-4.267 0 0 0 0 0 0zM1002.665-64h-981.332c-12.8 0-21.333 8.533-21.333 21.333v895.999c0 12.8 8.533 21.333 21.333 21.333h170.667c12.8 0 21.333-8.533 21.333-21.333s-8.533-21.333-21.333-21.333h-149.333v-853.332h938.666v853.332h-149.333c-12.8 0-21.333 8.533-21.333 21.333s8.533 21.333 21.333 21.333h170.667c12.8 0 21.333-8.533 21.333-21.333v-895.999c0-12.8-8.533-21.333-21.333-21.333zM319.998 746.667h-128c-12.8 0-21.333 8.533-21.333 21.333v170.667c0 12.8 8.533 21.333 21.333 21.333h128c12.8 0 21.333-8.533 21.333-21.333v-170.667c0-12.8-8.533-21.333-21.333-21.333zM213.331 789.333h85.333v128h-85.333v-128zM831.998 746.667h-128c-12.8 0-21.333 8.533-21.333 21.333v170.667c0 12.8 8.533 21.333 21.333 21.333h128c12.8 0 21.333-8.533 21.333-21.333v-170.667c0-12.8-8.533-21.333-21.333-21.333zM725.331 789.333h85.333v128h-85.333v-128zM703.998 832h-384c-12.8 0-21.333 8.533-21.333 21.333s8.533 21.333 21.333 21.333h384c12.8 0 21.333-8.533 21.333-21.333s-8.533-21.333-21.333-21.333zM1002.665 618.667h-981.332c-12.8 0-21.333 8.533-21.333 21.333s8.533 21.333 21.333 21.333h981.332c12.8 0 21.333-8.533 21.333-21.333s-8.533-21.333-21.333-21.333z" />
<glyph unicode="&#xe91b;" glyph-name="knowledge" d="M448-63.999h-256c-12.8 0-21.333 8.533-21.333 21.333v981.332c0 12.8 8.533 21.333 21.333 21.333h256c12.8 0 21.333-8.533 21.333-21.333v-981.332c0-12.8-8.533-21.333-21.333-21.333zM213.333-21.332h213.333v938.666h-213.333v-938.666zM703.999-63.999h-256c-12.8 0-21.333 8.533-21.333 21.333v639.999c0 12.8 8.533 21.333 21.333 21.333h256c12.8 0 21.333-8.533 21.333-21.333v-639.999c0-12.8-8.533-21.333-21.333-21.333zM469.333-21.332h213.333v597.332h-213.333v-597.332zM618.666 21.334h-85.333c-12.8 0-21.333 8.533-21.333 21.333s8.533 21.333 21.333 21.333h85.333c12.8 0 21.333-8.533 21.333-21.333s-8.533-21.333-21.333-21.333zM320 277.334c-12.8 0-21.333 8.533-21.333 21.333v554.666c0 12.8 8.533 21.333 21.333 21.333s21.333-8.533 21.333-21.333v-554.666c0-12.8-8.533-21.333-21.333-21.333zM362.667 21.334h-85.333c-12.8 0-21.333 8.533-21.333 21.333v170.667c0 12.8 8.533 21.333 21.333 21.333h85.333c12.8 0 21.333-8.533 21.333-21.333v-170.667c0-12.8-8.533-21.333-21.333-21.333zM298.667 64.001h42.667v128h-42.667v-128zM575.999 106.668c-12.8 0-21.333 8.533-21.333 21.333v384c0 12.8 8.533 21.333 21.333 21.333s21.333-8.533 21.333-21.333v-384c0-12.8-8.533-21.333-21.333-21.333zM106.667 64.001c-12.8 0-21.333 8.533-21.333 21.333v597.332c0 12.8 8.533 21.333 21.333 21.333s21.333-8.533 21.333-21.333v-597.332c0-12.8-8.533-21.333-21.333-21.333zM192-63.999h-170.667c-12.8 0-21.333 8.533-21.333 21.333v853.332c0 12.8 8.533 21.333 21.333 21.333h170.667c12.8 0 21.333-8.533 21.333-21.333v-853.332c0-12.8-8.533-21.333-21.333-21.333zM42.667-21.332h128v810.666h-128v-810.666zM874.666-63.999c-8.533 0-17.067 4.267-21.333 17.067l-213.333 823.466c0 4.267 0 12.8 4.267 17.067s8.533 8.533 12.8 8.533l123.733 34.133c12.8 4.267 21.333-4.267 25.6-17.067l213.333-827.732c4.267-12.8-4.267-21.333-17.067-25.6l-123.733-29.867c0 0-4.267 0-4.267 0zM686.932 768l204.8-785.066 81.067 21.333-204.8 785.066-81.067-21.333z" />
<glyph unicode="&#xe91c;" glyph-name="resources" d="M1002.667-64h-981.334c-12.8 0-21.333 8.533-21.333 21.333v981.334c0 12.8 8.533 21.333 21.333 21.333h981.334c12.8 0 21.333-8.533 21.333-21.333v-981.334c0-12.8-8.533-21.333-21.333-21.333zM42.667-21.333h938.668v938.668h-938.668v-938.668zM448 704h-170.667c-12.8 0-21.333 8.533-21.333 21.333s8.533 21.333 21.333 21.333h170.667c12.8 0 21.333-8.533 21.333-21.333s-8.533-21.333-21.333-21.333zM448 576h-298.667c-12.8 0-21.333 8.533-21.333 21.333s8.533 21.333 21.333 21.333h298.667c12.8 0 21.333-8.533 21.333-21.333s-8.533-21.333-21.333-21.333zM448 448h-298.667c-12.8 0-21.333 8.533-21.333 21.333s8.533 21.333 21.333 21.333h298.667c12.8 0 21.333-8.533 21.333-21.333s-8.533-21.333-21.333-21.333zM448 320h-298.667c-12.8 0-21.333 8.533-21.333 21.333s8.533 21.333 21.333 21.333h298.667c12.8 0 21.333-8.533 21.333-21.333s-8.533-21.333-21.333-21.333zM448 192h-298.667c-12.8 0-21.333 8.533-21.333 21.333s8.533 21.333 21.333 21.333h298.667c12.8 0 21.333-8.533 21.333-21.333s-8.533-21.333-21.333-21.333zM874.667 704h-298.667c-12.8 0-21.333 8.533-21.333 21.333s8.533 21.333 21.333 21.333h298.667c12.8 0 21.333-8.533 21.333-21.333s-8.533-21.333-21.333-21.333zM874.667 576h-298.667c-12.8 0-21.333 8.533-21.333 21.333s8.533 21.333 21.333 21.333h298.667c12.8 0 21.333-8.533 21.333-21.333s-8.533-21.333-21.333-21.333zM874.667 448h-298.667c-12.8 0-21.333 8.533-21.333 21.333s8.533 21.333 21.333 21.333h298.667c12.8 0 21.333-8.533 21.333-21.333s-8.533-21.333-21.333-21.333zM874.667 320h-298.667c-12.8 0-21.333 8.533-21.333 21.333s8.533 21.333 21.333 21.333h298.667c12.8 0 21.333-8.533 21.333-21.333s-8.533-21.333-21.333-21.333zM789.333 192h-213.333c-12.8 0-21.333 8.533-21.333 21.333s8.533 21.333 21.333 21.333h213.333c12.8 0 21.333-8.533 21.333-21.333s-8.533-21.333-21.333-21.333z" />
<glyph unicode="&#xe91d;" glyph-name="dpx-graph-bar-line" d="M1002.635-21.302h-21.332v618.64c0 11.775-9.557 21.332-21.332 21.332h-127.994c-11.775 0-21.332-9.557-21.332-21.332v-618.64h-85.329v319.986c0 11.775-9.557 21.332-21.332 21.332h-127.994c-11.775 0-21.332-9.557-21.332-21.332v-319.986h-85.329v405.316c0 11.775-9.557 21.332-21.332 21.332h-127.994c-11.775 0-21.332-9.557-21.332-21.332v-405.316h-85.329v191.992c0 11.775-9.557 21.332-21.332 21.332h-127.994c-11.775 0-21.332-9.557-21.332-21.332v-191.992h-21.332c-11.775 0-21.332-9.557-21.332-21.332s9.557-21.332 21.332-21.332h981.291c11.775 0 21.332 9.557 21.332 21.332s-9.557 21.332-21.332 21.332zM85.34-21.302v170.66h85.329v-170.66h-85.329zM341.329-21.302v383.983h85.329v-383.983h-85.329zM597.318-21.302v298.654h85.329v-298.654h-85.329zM853.307-21.302v597.307h85.329v-597.307h-85.329zM128.006 405.346c35.283 0 63.997 28.714 63.997 63.997 0 7.765-1.579 15.146-4.181 22.058l163.662 136.442c9.6-5.675 20.607-9.173 32.511-9.173 20.436 0 38.483 9.813 50.217 24.788l141.903-47.273c0.64-34.771 29.012-62.845 63.869-62.845 35.283 0 63.997 28.714 63.997 63.997 0 11.563-3.328 22.314-8.747 31.7l177.784 207.394c7.125-2.773 14.847-4.437 22.954-4.437 35.283 0 63.997 28.714 63.997 63.997s-28.714 63.997-63.997 63.997-63.997-28.714-63.997-63.997c0-11.563 3.328-22.271 8.704-31.7l-177.784-207.394c-7.125 2.731-14.847 4.437-22.911 4.437-20.436 0-38.441-9.813-50.217-24.788l-141.903 47.315c-0.683 34.687-29.012 62.802-63.869 62.802-35.283 0-63.997-28.714-63.997-63.997 0-7.808 1.579-15.188 4.181-22.058l-163.662-136.442c-9.6 5.675-20.607 9.173-32.511 9.173-35.283 0-63.997-28.714-63.997-63.997s28.714-63.997 63.997-63.997zM895.972 917.324c11.732 0 21.332-9.557 21.332-21.332s-9.6-21.332-21.332-21.332-21.332 9.557-21.332 21.332 9.6 21.332 21.332 21.332zM639.983 618.671c11.732 0 21.332-9.557 21.332-21.332s-9.6-21.332-21.332-21.332-21.332 9.557-21.332 21.332 9.6 21.332 21.332 21.332zM383.995 704c11.732 0 21.332-9.557 21.332-21.332s-9.6-21.332-21.332-21.332-21.332 9.557-21.332 21.332 9.6 21.332 21.332 21.332zM128.006 490.676c11.732 0 21.332-9.557 21.332-21.332s-9.6-21.332-21.332-21.332-21.332 9.557-21.332 21.332 9.6 21.332 21.332 21.332z" />
<glyph unicode="&#xe91e;" glyph-name="chevron-thin-right" d="M673.942 447.937l-421.788 438.268c-15.83 15.948-15.83 41.759 0 57.826 15.83 15.948 41.405 15.948 57.235 0l462.485-467.092c15.83-16.007 15.83-41.878 0-57.826l-462.485-467.092c-15.83-16.007-41.405-15.948-57.235 0-15.83 15.889-15.83 41.759 0 57.826l421.788 438.090z" />
<glyph unicode="&#xe91f;" glyph-name="chevron-thin-left" d="M771.847 9.85c15.83-16.065 15.83-41.878 0-57.826s-41.405-16.007-57.235 0l-462.485 467.092c-15.83 15.948-15.83 41.759 0 57.826l462.485 467.092c15.83 15.948 41.405 15.948 57.235 0 15.83-16.007 15.83-41.878 0-57.826l-421.788-438.209 421.788-438.15z" />
<glyph unicode="&#xe920;" glyph-name="check" d="M1001.827 794.656c-21.808 21.808-57.686 21.808-79.496 0l-579.331-579.331-241.652 241.652c-21.808 21.808-57.686 21.808-79.496 0s-21.808-57.686 0-79.496l281.399-281.399c10.905-10.905 25.326-16.532 39.747-16.532s28.844 5.628 39.747 16.532l619.079 619.079c22.16 21.808 22.16 57.686 0 79.496z" />
<glyph unicode="&#xe921;" glyph-name="mail" d="M52.009 705.96c26.704-14.336 396.607-213.078 410.396-220.465s31.628-10.889 49.576-10.889c17.948 0 35.787 3.502 49.576 10.889s383.692 206.128 410.396 220.465c26.758 14.392 52.038 70.369 2.955 70.369h-925.799c-49.083 0-23.803-55.978 2.901-70.369zM984.374 585.412c-30.369-15.814-404.212-210.615-422.817-220.355s-31.628-10.889-49.576-10.889-30.971 1.149-49.576 10.889-390.314 204.596-420.684 220.41c-21.341 11.163-21.122-1.915-21.122-11.984s0-399.070 0-399.070c0-22.982 30.971-54.719 54.719-54.719h875.512c23.748 0 54.719 31.737 54.719 54.719 0 0 0 388.946 0 399.014s0.219 23.147-21.176 11.984z" />
<glyph unicode="&#xe922;" glyph-name="pinterest-p" horiz-adv-x="731" d="M0.008 582.211c0 210.73 193.026 340.937 388.336 340.937 179.321 0 342.65-123.354 342.65-312.382 0-177.607-90.802-374.631-292.966-374.631-47.971 0-108.505 23.986-131.92 68.53-43.403-171.896-39.976-197.595-135.918-328.944l-7.995-2.855-5.14 5.711c-3.427 35.978-8.566 71.386-8.566 107.364 0 116.501 53.682 284.971 79.952 398.045-14.277 29.125-18.275 64.532-18.275 96.513 0 57.679 39.976 130.778 105.079 130.778 47.971 0 73.669-36.549 73.669-81.665 0-74.241-50.256-143.913-50.256-215.87 0-49.113 40.546-83.379 87.947-83.379 131.35 0 171.896 189.599 171.896 290.681 0 135.347-95.942 209.017-225.578 209.017-150.766 0-267.267-108.505-267.267-261.556 0-73.669 45.116-111.362 45.116-129.065 0-14.848-10.85-67.388-29.696-67.388-2.855 0-6.853 1.142-9.708 1.713-81.665 24.556-111.362 133.633-111.362 208.445z" />
<glyph unicode="&#xe923;" glyph-name="share2" d="M820.427 235.688c-39.046 0-74.266-15.174-100.974-39.6l-366.273 213.608c2.837 11.597 4.626 23.686 4.626 36.023s-1.789 24.365-4.626 35.962l362.387 211.511c27.51-25.721 64.273-41.636 104.861-41.636 85.061 0 154.207 69.146 154.207 154.207s-69.146 154.207-154.207 154.207-154.207-69.146-154.207-154.207c0-12.337 1.789-24.426 4.626-35.962l-362.387-211.511c-27.51 25.66-64.273 41.636-104.861 41.636-85.061 0-154.207-69.146-154.207-154.207s69.146-154.207 154.207-154.207c40.588 0 77.351 15.915 104.861 41.636l366.273-213.608c-2.59-10.794-4.132-22.083-4.132-33.679 0-82.778 67.049-149.828 149.828-149.828s149.828 67.111 149.828 149.828-67.049 149.828-149.828 149.828z" />
<glyph unicode="&#xe924;" glyph-name="quotes-left" d="M224.783 543.906c123.587 0 223.773-100.188 223.773-223.773 0-123.587-100.186-223.773-223.773-223.773s-223.773 100.186-223.773 223.773l-0.999 31.968c0 247.173 200.373 447.546 447.546 447.546v-127.87c-85.387 0-165.666-33.252-226.045-93.631-11.622-11.624-22.229-23.992-31.798-36.982 11.426 1.798 23.137 2.743 35.068 2.743zM800.2 543.906c123.585 0 223.773-100.188 223.773-223.773 0-123.587-100.188-223.773-223.773-223.773s-223.773 100.186-223.773 223.773l-0.999 31.968c0 247.173 200.373 447.546 447.546 447.546v-127.87c-85.387 0-165.666-33.252-226.045-93.631-11.624-11.624-22.231-23.992-31.8-36.982 11.428 1.798 23.137 2.743 35.070 2.743z" />
<glyph unicode="&#xe925;" glyph-name="plus" d="M1023.948 448c0-47.185-4.096-85.325-51.28-85.325h-375.344v-375.344c0-47.099-38.139-51.28-85.325-51.28s-85.325 4.181-85.325 51.28v375.344h-375.344c-47.099 0-51.28 38.139-51.28 85.325s4.181 85.325 51.28 85.325h375.344v375.344c0 47.185 38.139 51.28 85.325 51.28s85.325-4.096 85.325-51.28v-375.344h375.344c47.185 0 51.28-38.139 51.28-85.325z" />
<glyph unicode="&#xe926;" glyph-name="play" d="M192.014 959.978v-1023.956l639.972 511.242-639.972 512.714z" />
<glyph unicode="&#xe927;" glyph-name="triangle-up" horiz-adv-x="767" d="M-0.003 256.248l383.503 383.503 383.503-383.503h-767.007z" />
<glyph unicode="&#xe928;" glyph-name="linkedin" horiz-adv-x="878" d="M199.496 594.899v-566.457h-188.628v566.457h188.628zM211.499 769.809c0.571-54.302-40.583-97.743-106.318-97.743v0h-1.143c-63.448 0-104.031 43.442-104.031 97.743 0 55.446 42.299 97.743 106.318 97.743 64.59 0 104.603-42.299 105.175-97.743zM877.985 353.112v-324.669h-188.057v302.948c0 76.023-27.437 128.039-95.458 128.039-52.016 0-82.882-34.868-96.6-68.592-4.572-12.575-6.288-29.152-6.288-46.3v-316.095h-188.057c2.287 513.298 0 566.457 0 566.457h188.057v-82.311h-1.143c24.578 38.869 69.164 95.458 170.909 95.458 124.037 0 216.636-81.167 216.636-254.934z" />
<glyph unicode="&#xe929;" glyph-name="phone" horiz-adv-x="805" d="M804.99 214.741c0-20.581-9.148-60.601-17.723-79.469-12.006-28.014-44.022-46.309-69.749-60.601-33.731-18.295-68.034-29.158-106.339-29.158-53.169 0-101.193 21.725-149.789 39.449-34.874 12.577-68.605 28.014-100.050 47.453-97.191 60.030-214.393 177.231-274.423 274.423-19.439 31.445-34.874 65.175-47.453 100.050-17.723 48.595-39.449 96.619-39.449 149.789 0 38.305 10.862 72.607 29.158 106.339 14.293 25.727 32.587 57.743 60.601 69.749 18.866 8.575 58.886 17.723 79.469 17.723 4.002 0 8.004 0 12.006-1.715 12.006-4.002 24.583-32.016 30.301-43.451 18.295-32.587 36.018-65.747 54.884-97.763 9.148-14.864 26.299-33.16 26.299-50.882 0-34.874-103.481-85.757-103.481-116.629 0-15.437 14.293-35.447 22.297-49.167 57.743-104.052 129.779-176.088 233.83-233.83 13.721-8.004 33.731-22.297 49.167-22.297 30.872 0 81.755 103.481 116.629 103.481 17.723 0 36.018-17.152 50.882-26.299 32.016-18.866 65.175-36.589 97.763-54.884 11.435-5.717 39.449-18.295 43.451-30.301 1.715-4.002 1.715-8.004 1.715-12.006z" />
<glyph unicode="&#xe92a;" glyph-name="window-setting" d="M1010.246 159.429l-32.53 18.759c3.837 23.961 3.837 46.6 0 70.56l32.615 18.802c4.903 2.814 8.442 7.461 9.933 12.961 1.45 5.457 0.682 11.255-2.174 16.159l-63.952 110.764c-5.884 10.189-18.93 13.643-29.119 7.845l-33.042-19.058c-18.162 14.453-38.456 26.049-60.626 34.705v38.371c0 11.767-9.55 21.317-21.317 21.317h-127.903c-11.767 0-21.317-9.55-21.317-21.317v-38.371c-22.17-8.654-42.464-20.294-60.626-34.705l-33.042 19.058c-10.147 5.799-23.235 2.387-29.119-7.845l-63.952-110.764c-2.814-4.903-3.624-10.701-2.174-16.159 1.492-5.5 5.031-10.104 9.933-12.961l32.615-18.802c-3.837-23.961-3.837-46.642 0-70.56l-32.53-18.759c-10.189-5.884-13.686-18.887-7.802-29.119l63.952-110.764c5.841-10.147 18.845-13.558 29.119-7.845l32.956 19.015c18.205-14.496 38.499-26.092 60.626-34.662v-38.371c0-11.767 9.55-21.317 21.317-21.317h127.903c11.767 0 21.317 9.55 21.317 21.317v38.371c22.127 8.57 42.421 20.209 60.626 34.662l32.956-19.015c10.232-5.799 23.278-2.387 29.119 7.845l63.952 110.764c6.011 10.232 2.515 23.278-7.717 29.119zM933.162 171.964c-2.003-9.081 2.089-18.461 10.147-23.066l27.2-15.689-42.677-73.843-27.542 15.903c-8.058 4.605-18.205 3.496-25.026-2.729-20.38-18.631-44.467-32.403-71.669-41.014-8.825-2.771-14.88-11.043-14.88-20.337v-32.147h-85.269v32.147c0 9.294-6.054 17.523-14.88 20.337-27.2 8.612-51.289 22.383-71.669 41.014-6.779 6.224-16.926 7.375-25.026 2.729l-27.542-15.903-42.677 73.843 27.2 15.689c8.058 4.605 12.151 13.984 10.147 23.066-6.352 28.693-6.352 54.274 0 83.052 2.003 9.081-2.089 18.461-10.147 23.066l-27.286 15.732 42.677 73.843 27.584-15.945c8.058-4.647 18.205-3.496 25.069 2.729 20.252 18.589 44.34 32.403 71.626 41.057 8.868 2.814 14.88 11.043 14.88 20.337v32.189h85.269v-32.147c0-9.294 6.011-17.48 14.88-20.337 27.286-8.654 51.374-22.468 71.626-41.057 6.864-6.224 16.968-7.418 25.069-2.729l27.584 15.945 42.677-73.843-27.286-15.732c-8.058-4.605-12.151-13.984-10.147-23.066 6.438-28.778 6.438-54.402 0.085-83.094zM746.125 320.119c-58.793 0-106.586-47.793-106.586-106.586s47.793-106.586 106.586-106.586c58.793 0 106.586 47.793 106.586 106.586s-47.793 106.586-106.586 106.586zM746.125 149.58c-35.258 0-63.952 28.693-63.952 63.952s28.693 63.952 63.952 63.952c35.258 0 63.952-28.693 63.952-63.952s-28.693-63.952-63.952-63.952zM164.316 868.123c8.325-8.325 8.325-21.823 0-30.147s-21.823-8.325-30.147 0c-8.325 8.325-8.325 21.823 0 30.147s21.823 8.325 30.147 0zM249.584 868.123c8.325-8.325 8.325-21.823 0-30.147s-21.823-8.325-30.147 0c-8.325 8.325-8.325 21.823 0 30.147s21.823 8.325 30.147 0zM334.854 868.123c8.325-8.325 8.325-21.823 0-30.147s-21.823-8.325-30.147 0c-8.325 8.325-8.325 21.823 0 30.147s21.823 8.325 30.147 0zM405.049 277.484h-298.442c-35.258 0-63.952 28.693-63.952 63.952v405.027h810.055v-213.172c0-11.767 9.55-21.317 21.317-21.317s21.317 9.55 21.317 21.317v319.758c0 58.793-47.793 106.586-106.586 106.586h-682.152c-58.793 0-106.586-47.793-106.586-106.586v-511.614c0-58.793 47.793-106.586 106.586-106.586h298.442c11.767 0 21.317 9.55 21.317 21.317s-9.55 21.317-21.317 21.317zM106.608 917.001h682.152c35.258 0 63.952-28.693 63.952-63.952v-63.952h-810.055v63.952c0 35.258 28.693 63.952 63.952 63.952z" />
<glyph unicode="&#xe92b;" glyph-name="box-view-setting" d="M312.978 618.671l121.766-121.723c4.139-4.181 9.6-6.272 15.060-6.272s10.923 2.091 15.103 6.229c8.32 8.32 8.32 21.844 0 30.164l-121.766 121.723c26.282 32.895 42.665 73.938 42.665 119.206 0 105.851-86.14 191.992-191.949 191.992-105.851 0-192.035-86.14-192.035-191.992 0-105.894 86.183-191.992 192.035-191.992 45.225 0 86.268 16.383 119.12 42.665zM44.488 767.997c0 82.343 66.984 149.327 149.37 149.327 82.343 0 149.285-66.984 149.285-149.327s-66.941-149.327-149.285-149.327c-82.385 0-149.37 66.984-149.37 149.327zM876.452 405.346h-695.735l26.111 78.29c3.712 11.221-2.347 23.295-13.482 27.007-11.093 3.712-23.252-2.304-27.007-13.482l-35.454-106.406c-0.256-0.811-0.043-1.579-0.213-2.389-0.256-1.451-0.853-2.816-0.853-4.352v-426.649c0-11.775 9.557-21.332 21.332-21.332h725.302c11.775 0 21.332 9.557 21.332 21.332v426.649c0 11.775-9.557 21.332-21.332 21.332zM855.119-21.302h-682.638v383.983h682.638v-383.983zM449.804 618.671h106.534c11.775 0 21.332 9.557 21.332 21.332s-9.557 21.332-21.332 21.332h-106.534c-11.775 0-21.332-9.557-21.332-21.332s9.557-21.332 21.332-21.332zM535.133 21.362h255.989c11.775 0 21.332 9.557 21.332 21.332v85.329c0 11.775-9.557 21.332-21.332 21.332h-255.989c-11.775 0-21.332-9.557-21.332-21.332v-85.329c0-11.775 9.557-21.332 21.332-21.332zM556.466 106.693h213.324v-42.665h-213.324v42.665zM1020.702 607.791c-1.493 5.461-5.035 10.112-9.941 12.97l-29.439 16.98c2.475 16.084 2.475 31.018 0 47.145l29.396 16.98c4.907 2.816 8.448 7.509 9.941 12.97 1.451 5.419 0.683 11.307-2.176 16.17l-42.665 73.896c-5.888 10.24-18.9 13.652-29.14 7.808l-29.567-17.066c-12.33 9.557-25.898 17.279-40.659 23.21v34.474c0 11.775-9.557 21.332-21.332 21.332h-85.329c-11.775 0-21.332-9.557-21.332-21.332v-34.474c-14.762-5.931-28.33-13.652-40.659-23.21l-29.567 17.066c-10.155 5.803-23.295 2.389-29.14-7.808l-42.665-73.896c-2.816-4.907-3.627-10.752-2.176-16.17 1.493-5.461 5.035-10.112 9.941-12.97l29.396-16.98c-2.475-16.127-2.475-31.060 0-47.145l-29.439-16.98c-4.907-2.816-8.448-7.509-9.941-12.97-1.451-5.461-0.683-11.307 2.176-16.17l42.665-73.896c2.773-4.907 7.467-8.491 12.97-9.941 5.419-1.408 11.349-0.683 16.17 2.133l29.61 17.108c12.287-9.515 25.898-17.279 40.659-23.167v-34.516c0-11.775 9.557-21.332 21.332-21.332h85.329c11.775 0 21.332 9.557 21.332 21.332v34.516c14.676 5.931 28.372 13.738 40.617 23.124l29.652-17.108c10.197-5.931 23.295-2.432 29.14 7.808l42.665 73.896c2.816 4.907 3.627 10.752 2.176 16.212zM949.579 557.489l-24.191 13.994c-8.107 4.651-18.431 3.541-25.3-2.987-14.207-13.396-31.402-23.21-51.113-29.14-9.003-2.688-15.146-11.008-15.146-20.436v-28.244h-42.665v28.244c0 9.429-6.187 17.706-15.146 20.436-19.711 5.931-36.905 15.743-51.155 29.183-6.912 6.443-17.151 7.637-25.3 2.944l-24.191-13.994-21.332 36.947 24.191 13.951c8.149 4.693 12.244 14.207 10.069 23.38-5.077 21.503-5.077 37.502 0 59.048 2.176 9.173-1.92 18.687-10.069 23.38l-24.148 13.951 21.375 36.99 24.106-13.908c8.149-4.736 18.474-3.541 25.3 2.901 14.292 13.482 31.487 23.295 51.113 29.183 8.96 2.731 15.146 11.008 15.146 20.436v28.244h42.665v-28.244c0-9.429 6.187-17.706 15.188-20.436 19.626-5.888 36.819-15.7 51.113-29.183 6.869-6.443 17.108-7.595 25.3-2.901l24.106 13.908 21.375-36.99-24.148-13.951c-8.149-4.693-12.244-14.207-10.069-23.38 5.077-21.503 5.077-37.502 0-59.048-2.176-9.173 1.92-18.687 10.069-23.38l24.191-13.951-21.332-36.947zM812.455 746.665c-47.059 0-85.329-38.27-85.329-85.329s38.27-85.329 85.329-85.329c47.059 0 85.329 38.27 85.329 85.329s-38.27 85.329-85.329 85.329zM812.455 618.671c-23.551 0-42.665 19.156-42.665 42.665s19.114 42.665 42.665 42.665c23.551 0 42.665-19.156 42.665-42.665s-19.114-42.665-42.665-42.665z" />
<glyph unicode="&#xe92c;" glyph-name="person-share-1" d="M1012.995 58.94c-9.744 20.551-26.89 36.081-48.293 43.697-37.187 13.403-77.523-1.149-98.797-32.465l-143.345 51.185c0.212 2.553 0.766 4.978 0.766 7.574 0 6.127-0.723 12.041-1.958 17.785l150.791 75.395c17.104-19.657 40.165-29.401 63.993-29.401 34.847 0 68.502 21.912 80.629 58.206 7.191 21.572 5.532 44.633-4.595 64.971-33.953 67.992-133.049 60.121-156.832-11.105-4.893-14.636-5.361-29.912-2.213-44.591l-151.088-75.566c-15.616 17.87-38.293 29.401-63.822 29.401-46.93 0-85.096-38.166-85.096-85.096s38.166-85.096 85.096-85.096c29.273 0 55.1 14.85 70.417 37.357l142.962-51.058c-4.723-51.824 36.123-92.755 84.501-92.755 34.038 0 67.396 20.977 80.076 56.547 7.659 21.444 6.51 44.505-3.191 65.014zM895.733 291.296c5.915 17.87 22.423 29.103 40.293 29.103 15.616 0 30.678-8.595 38.123-23.487 10.51-21.104 2.085-46.547-19.062-57.1-10.169-5.106-21.7-5.872-32.465-2.298-22.167 7.361-34.379 31.401-26.89 53.781zM638.231 86.384c-23.444 0-42.549 19.104-42.549 42.549s19.104 42.549 42.549 42.549c23.444 0 42.549-19.104 42.549-42.549s-19.104-42.549-42.549-42.549zM976.106 8.308c0 0 0 0 0 0-7.871-21.998-31.996-33.741-54.377-25.784-21.912 7.829-33.571 31.784-25.741 54.121 0.043 0.085 0.128 0.085 0.171 0.212s0 0.255 0.043 0.383c6.297 17.147 22.55 27.869 39.868 27.869 29.571 0 49.909-29.231 40.038-56.802zM553.135 450.554c63.95 49.441 106.371 134.665 106.371 231.504 0 152.492-104.967 276.563-234.015 276.563s-234.015-124.071-234.015-276.563c0-96.839 42.421-182.064 106.371-231.504v-93.904l-199.041-71.098c-59.099-21.104-98.797-77.437-98.797-140.197v-101.52c0-11.743 9.53-21.274 21.274-21.274h425.482c11.743 0 21.274 9.53 21.274 21.274s-9.53 21.274-21.274 21.274h-404.208v80.246c0 44.803 28.38 85.054 70.587 100.158l213.124 76.119c8.467 3.021 14.126 11.062 14.126 20.040v83.012c26.422-12.211 55.058-19.19 85.096-19.19s58.674 6.978 85.096 19.19v-83.012c0-11.743 9.53-21.274 21.274-21.274s21.274 9.53 21.274 21.274v108.881zM425.49 916.074c93.776 0 171.853-82.841 188.191-191.765-0.298-0.043-0.468-0.043-0.766-0.085-61.737-11.999-100.073 8.169-136.409 71.779-3.829 6.722-10.254 10.637-18.849 10.722-7.786-0.128-14.892-4.51-18.466-11.445-19.657-37.655-85.692-70.672-141.345-70.672-21.657 0-40.251 3.574-58.546 11.062 19.913 103.264 95.733 180.405 186.191 180.405zM234.023 682.059c0 3.446 0.298 6.808 0.426 10.212 19.955-6.722 40.591-10.212 63.396-10.212 58.461 0 122.539 27.784 158.918 65.949 33.911-47.229 73.906-69.609 124.709-69.609 11.233 0 23.188 1.447 35.485 3.617 0-129.049-85.905-234.015-191.467-234.015s-191.467 105.009-191.467 234.057z" />
<glyph unicode="&#xe92d;" glyph-name="icon-home-data-size" d="M512 362.682c-23.551 0-42.665-19.156-42.665-42.665 0-15.572 8.832-28.671 21.332-36.137v-113.19c0-11.775 9.557-21.332 21.332-21.332s21.332 9.557 21.332 21.332v113.19c12.5 7.467 21.332 20.564 21.332 36.137 0 23.508-19.114 42.665-42.665 42.665zM149.349-63.967h725.302c11.775 0 21.332 9.557 21.332 21.332v597.307c0 11.775-9.557 21.332-21.332 21.332h-106.662v127.994c0 141.178-114.811 255.989-255.989 255.989s-255.989-114.811-255.989-255.989v-127.994h-106.662c-11.775 0-21.332-9.557-21.332-21.332v-597.307c0-11.775 9.557-21.332 21.332-21.332zM298.676 704c0 117.627 95.697 213.324 213.324 213.324s213.324-95.697 213.324-213.324v-127.994h-426.649v127.994zM170.682 533.34h682.638v-554.643h-682.638v554.643z" />
<glyph unicode="&#xe92e;" glyph-name="move-up" d="M41.643 874.649c11.775 0 21.332 9.557 21.332 21.332v21.332h21.332c11.775 0 21.332 9.557 21.332 21.332s-9.557 21.332-21.332 21.332h-42.665c-11.775 0-21.332-9.557-21.332-21.332v-42.665c0-11.775 9.557-21.332 21.332-21.332zM468.292 959.978h-42.665c-11.775 0-21.332-9.557-21.332-21.332s9.557-21.332 21.332-21.332h21.332v-21.332c0-11.775 9.557-21.332 21.332-21.332s21.332 9.557 21.332 21.332v42.665c0 11.775-9.557 21.332-21.332 21.332zM41.643 746.654c11.775 0 21.332 9.557 21.332 21.332v42.665c0 11.775-9.557 21.332-21.332 21.332s-21.332-9.557-21.332-21.332v-42.665c0-11.775 9.557-21.332 21.332-21.332zM169.638 917.313h42.665c11.775 0 21.332 9.557 21.332 21.332s-9.557 21.332-21.332 21.332h-42.665c-11.775 0-21.332-9.557-21.332-21.332s9.557-21.332 21.332-21.332zM169.638 490.665h42.665c11.775 0 21.332 9.557 21.332 21.332s-9.557 21.332-21.332 21.332h-42.665c-11.775 0-21.332-9.557-21.332-21.332s9.557-21.332 21.332-21.332zM297.632 917.313h42.665c11.775 0 21.332 9.557 21.332 21.332s-9.557 21.332-21.332 21.332h-42.665c-11.775 0-21.332-9.557-21.332-21.332s9.557-21.332 21.332-21.332zM297.632 490.665h42.665c11.775 0 21.332 9.557 21.332 21.332s-9.557 21.332-21.332 21.332h-42.665c-11.775 0-21.332-9.557-21.332-21.332s9.557-21.332 21.332-21.332zM468.292 575.994c-11.775 0-21.332-9.557-21.332-21.332v-21.332h-21.332c-11.775 0-21.332-9.557-21.332-21.332s9.557-21.332 21.332-21.332h42.665c11.775 0 21.332 9.557 21.332 21.332v42.665c0 11.775-9.557 21.332-21.332 21.332zM468.292 703.989c-11.775 0-21.332-9.557-21.332-21.332v-42.665c0-11.775 9.557-21.332 21.332-21.332s21.332 9.557 21.332 21.332v42.665c0 11.775-9.557 21.332-21.332 21.332zM41.643 490.665h42.665c11.775 0 21.332 9.557 21.332 21.332s-9.557 21.332-21.332 21.332h-21.332v21.332c0 11.775-9.557 21.332-21.332 21.332s-21.332-9.557-21.332-21.332v-42.665c0-11.775 9.557-21.332 21.332-21.332zM41.643 618.66c11.775 0 21.332 9.557 21.332 21.332v42.665c0 11.775-9.557 21.332-21.332 21.332s-21.332-9.557-21.332-21.332v-42.665c0-11.775 9.557-21.332 21.332-21.332zM468.292 831.983c-11.775 0-21.332-9.557-21.332-21.332v-42.665c0-11.775 9.557-21.332 21.332-21.332s21.332 9.557 21.332 21.332v42.665c0 11.775-9.557 21.332-21.332 21.332zM468.292 405.335h-426.649c-11.775 0-21.332-9.557-21.332-21.332v-426.649c0-11.775 9.557-21.332 21.332-21.332h426.649c11.775 0 21.332 9.557 21.332 21.332v426.649c0 11.775-9.557 21.332-21.332 21.332zM446.96-21.313h-383.983v383.983h383.983v-383.983zM995.373 590.33l-170.66 170.66c-1.963 1.963-4.352 3.541-6.955 4.608-5.205 2.176-11.093 2.176-16.298 0-2.645-1.109-4.992-2.645-6.955-4.608l-170.66-170.66c-8.32-8.32-8.32-21.844 0-30.164s21.844-8.32 30.164 0l134.266 134.266v-609.083c0-11.775 9.557-21.332 21.332-21.332s21.332 9.557 21.332 21.332v609.083l134.223-134.223c4.181-4.181 9.643-6.229 15.103-6.229s10.923 2.048 15.103 6.229c8.32 8.32 8.32 21.802 0 30.122z" />
<glyph unicode="&#xe92f;" glyph-name="cube" d="M999.583 959.974h-682.624c-6.778 0-12.872-2.73-17.261-7.168l-292.504-292.504c-4.437-4.388-7.168-10.483-7.168-17.261v-682.624c0-13.457 10.922-24.379 24.379-24.379h682.624c6.778 0 12.872 2.73 17.261 7.168l292.504 292.504c4.437 4.388 7.168 10.483 7.168 17.261v682.624c0 13.457-10.922 24.379-24.379 24.379zM975.203 277.35h-243.794v355.599l243.794 243.794v-599.393zM940.731 228.591l-209.322-209.322v209.322h209.322zM292.579 263.064l-243.794-243.794v599.393h243.794v-355.599zM83.257 667.421l209.322 209.322v-209.322h-209.322zM341.337 618.663h341.313v-341.313h-341.313v341.313zM940.731 911.216l-243.794-243.794h-355.599v243.794h599.393zM83.257-15.203l243.794 243.794h355.599v-243.794h-599.393z" />
<glyph unicode="&#xe930;" glyph-name="network-information" d="M789.321 405.346c-129.359 0-234.657-105.296-234.657-234.657s105.296-234.657 234.657-234.657c129.359 0 234.657 105.296 234.657 234.657s-105.296 234.657-234.657 234.657zM789.321-21.302c-105.851 0-191.992 86.14-191.992 191.992s86.14 191.992 191.992 191.992c105.851 0 191.992-86.14 191.992-191.992s-86.14-191.992-191.992-191.992zM789.321 234.687c-11.775 0-21.332-9.557-21.332-21.332v-170.66c0-11.775 9.557-21.332 21.332-21.332s21.332 9.557 21.332 21.332v170.66c0 11.775-9.557 21.332-21.332 21.332zM804.406 313.768c8.331-8.331 8.331-21.838 0-30.169s-21.838-8.331-30.169 0c-8.331 8.331-8.331 21.838 0 30.169s21.838 8.331 30.169 0zM1023.978 470.239c-11.307 263.072-218.359 471.020-477.718 488.043-1.451 0.213-2.816 0.299-4.267 0.213-9.984 0.597-19.882 1.493-29.994 1.493-9.984 0-19.796-0.896-29.652-1.493-1.664 0.128-3.243 0-4.907-0.256-257.781-17.322-463.297-225.825-476.139-484.758-0.299-1.365-0.853-2.645-0.853-4.139 0-0.896 0.384-1.621 0.512-2.475-0.213-6.315-0.939-12.5-0.939-18.858 0-87.633 22.271-170.148 61.266-242.507 0.341-0.896 0.939-1.579 1.408-2.432 82.428-151.076 238.497-256.586 421.657-266.357 0.384-0.043 0.768-0.043 1.109-0.043 4.352 0 8.149 1.579 11.563 3.84 0.384 0.256 0.896 0.128 1.237 0.427 0.341 0.256 0.512 0.64 0.811 0.896 1.195 0.981 2.133 2.219 3.072 3.413 0.725 0.939 1.493 1.835 2.048 2.859 0.683 1.195 0.939 2.56 1.365 3.883 0.384 1.323 0.853 2.603 0.939 3.968 0.043 0.341 0.256 0.597 0.256 0.896 0.043 0.981-0.341 1.877-0.427 2.773-0.128 1.536-0.213 3.029-0.683 4.48-0.427 1.408-1.109 2.645-1.835 3.883-0.512 0.896-0.683 1.92-1.28 2.731-55.166 73.64-97.617 147.621-128.805 221.302h116.944c11.775 0 21.332 9.557 21.332 21.332s-9.557 21.332-21.332 21.332h-134.053c-26.068 72.018-40.361 143.311-43.475 213.324h689.506c0.171 0 0.299 0.085 0.427 0.085 0.171 0 0.341-0.085 0.512-0.085 1.365 0.085 2.603 0.683 3.883 0.939 1.323 0.341 2.688 0.469 3.925 0.939 1.237 0.597 2.219 1.493 3.328 2.261 1.109 0.853 2.347 1.451 3.285 2.475 0.981 0.981 1.579 2.261 2.347 3.456 0.725 1.067 1.579 2.091 2.091 3.371 0.597 1.408 0.683 2.944 0.896 4.523 0.128 1.152 0.64 2.219 0.64 3.371 0 0.171-0.085 0.256-0.085 0.427s0.085 0.341 0.085 0.469zM44.863 490.676c7.083 78.248 33.45 150.862 74.28 213.324h192.845c-25.044-68.733-38.483-140.197-40.019-213.324h-227.105zM355.804 704h312.35c26.964-67.965 40.873-139.258 42.537-213.324h-398.063c1.707 73.256 15.786 144.762 43.177 213.324zM712.652 704h192.973c40.531-62.248 66.557-134.778 73.64-213.324h-225.953c-1.621 73.213-15.316 144.719-40.659 213.324zM874.437 746.665h-179.235c-25.514 56.958-58.962 111.568-100.519 163.065 112.038-19.754 210.252-78.845 279.753-163.065zM533.29 916.3c48.51-53.715 86.865-110.374 115.622-169.636h-273.737c28.714 59.090 67.026 115.92 115.536 169.593 7.083 0.299 14.079 1.067 21.29 1.067 7.168 0 14.164-0.725 21.29-1.024zM429.231 909.559c-41.683-51.753-74.877-106.235-100.007-162.894h-178.979c69.373 83.921 167.46 142.927 278.985 162.894zM441.262-16.054c-135.546 20.522-251.338 98.599-322.631 208.076h209.868c27.519-69.629 65.234-139.258 112.763-208.076zM313.012 234.687h-218.999c-32.724 64.125-51.326 136.613-51.326 213.324h229.835c2.859-70.226 16.34-141.605 40.489-213.324z" />
<glyph unicode="&#xe931;" glyph-name="server-share-1" d="M941.058 153.771c-46.216 17.326-99.79-2.271-125.821-42.557l-144.071 53.995c2.271 14.339 2.818 24.18-2.355 43.44l153.238 76.619c31.875-40.665 85.113-51.472 129.016-29.563 51.808 25.904 72.919 89.193 47.056 141.043-25.315 50.505-90.244 72.372-141.043 47.014-45.416-22.666-67.241-74.012-54.583-121.279l-152.607-76.282c-19.218 24.474-48.739 40.496-82.212 40.496-57.99 0-105.131-47.14-105.131-105.131s47.14-105.131 105.131-105.131c37.469 0 70.185 19.849 88.772 49.411l143.861-53.869c-7.738-48.318 19.302-97.141 66.821-114.971 54.5-20.521 115.181 7.653 135.366 61.481 20.437 54.247-6.981 114.886-61.438 135.282zM875.919 406.211c8.831 4.415 18.335 6.644 28.091 6.644 24.096 0 45.752-13.33 56.518-34.862 15.517-31.118 2.859-69.091-28.259-84.651-30.53-15.307-69.218-2.102-84.441 27.923-0.042 0.126-0.042 0.252-0.084 0.378s-0.169 0.169-0.21 0.295c-15.265 30.992-2.607 68.755 28.385 84.273zM567.676 118.49c-34.777 0-63.078 28.301-63.078 63.078s28.301 63.078 63.078 63.078c34.777 0 63.078-28.301 63.078-63.078s-28.301-63.078-63.078-63.078zM963.136 33.249c-11.816-31.497-49.159-48.906-81.245-36.922-32.506 12.237-49.033 48.654-36.922 81.202 0.042 0.042 0.084 0.042 0.084 0.084s0 0.084 0 0.084c9.252 24.391 32.927 40.791 58.999 40.791 7.569 0 15.013-1.388 22.204-4.079 15.812-5.972 28.343-17.662 35.281-32.969s7.527-32.422 1.598-48.192zM420.536 454.907c-223.045 0-378.47 77.586-378.47 147.182v84.861c67.41-63.162 209.63-105.888 378.47-105.888 168.881 0 311.060 42.725 378.47 105.888v-105.888c0-11.606 9.419-21.026 21.026-21.026s21.026 9.419 21.026 21.026v189.235c0 106.098-184.736 189.235-420.522 189.235s-420.522-83.137-420.522-189.235v-546.679c0-99.454 158.747-178.638 377.544-188.352 13.246 0 21.489 9.504 21.909 20.101 0.547 11.606-8.452 21.447-20.059 21.951-208.368 9.209-337.343 83.095-337.343 146.299v104.626c57.822-54.121 171.152-92.935 314.004-102.482 11.018-0.883 21.615 7.612 22.372 19.597 0.799 11.564-7.99 21.615-19.597 22.372-177.629 11.901-316.779 75.652-316.779 145.122v105.888c67.41-63.162 209.63-105.888 378.47-105.888 11.606 0 21.026 9.419 21.026 21.026s-9.419 21.026-21.026 21.026zM420.536 917.481c223.045 0 378.47-77.586 378.47-147.182s-155.425-147.182-378.47-147.182c-223.045 0-378.47 77.586-378.47 147.182s155.425 147.182 378.47 147.182z" />
<glyph unicode="&#xe932;" glyph-name="server-block-2" d="M746.338 489.918c-152.703 0-276.944-124.242-276.944-276.944s124.242-276.944 276.944-276.944c152.703 0 276.944 124.242 276.944 276.944s-124.242 276.944-276.944 276.944zM746.338 447.311c56.965 0 109.159-20.451 149.891-54.367l-329.82-329.777c-33.957 40.604-54.409 92.841-54.409 149.806 0 129.184 105.153 234.338 234.338 234.338zM746.338-21.365c-56.965 0-109.159 20.451-149.849 54.367l329.82 329.777c33.915-40.647 54.367-92.883 54.367-149.806 0-129.184-105.153-234.338-234.338-234.338zM341.572 704.358h426.069c11.76 0 21.303 9.544 21.303 21.303s-9.544 21.303-21.303 21.303h-426.069c-11.76 0-21.303-9.544-21.303-21.303s9.544-21.303 21.303-21.303zM341.572 789.572h426.069c11.76 0 21.303 9.544 21.303 21.303s-9.544 21.303-21.303 21.303h-426.069c-11.76 0-21.303-9.544-21.303-21.303s9.544-21.303 21.303-21.303zM171.145 725.661c35.236 0 63.91 28.675 63.91 63.91s-28.675 63.91-63.91 63.91c-35.236 0-63.91-28.675-63.91-63.91s28.675-63.91 63.91-63.91zM171.145 810.876c11.717 0 21.303-9.587 21.303-21.303s-9.587-21.303-21.303-21.303c-11.717 0-21.303 9.587-21.303 21.303s9.587 21.303 21.303 21.303zM426.787 448.717h-85.213c-11.76 0-21.303-9.544-21.303-21.303s9.544-21.303 21.303-21.303h85.213c11.76 0 21.303 9.544 21.303 21.303s-9.544 21.303-21.303 21.303zM341.572 533.93c-11.76 0-21.303-9.544-21.303-21.303s9.544-21.303 21.303-21.303h127.821c11.76 0 21.303 9.544 21.303 21.303s-9.544 21.303-21.303 21.303h-127.821zM107.235 491.324c0-35.236 28.675-63.91 63.91-63.91s63.91 28.675 63.91 63.91c0 35.236-28.675 63.91-63.91 63.91s-63.91-28.675-63.91-63.91zM192.448 491.324c0-11.717-9.587-21.303-21.303-21.303s-21.303 9.587-21.303 21.303c0 11.717 9.587 21.303 21.303 21.303s21.303-9.587 21.303-21.303zM426.787 65.255h-362.159c-11.717 0-21.303 9.587-21.303 21.303v213.034c0 11.717 9.587 21.303 21.303 21.303h319.552c11.76 0 21.303 9.544 21.303 21.303s-9.544 21.303-21.303 21.303h-319.552c-11.717 0-21.303 9.587-21.303 21.303v213.034c0 11.717 9.587 21.303 21.303 21.303h809.531c11.717 0 21.303-9.587 21.303-21.303v-63.91c0-11.76 9.544-21.303 21.303-21.303s21.303 9.544 21.303 21.303v63.91c0 16.446-6.391 31.273-16.617 42.607 10.226 11.333 16.617 26.16 16.617 42.607v213.034c0 35.236-28.675 63.91-63.91 63.91h-809.531c-35.236 0-63.91-28.675-63.91-63.91v-213.034c0-16.446 6.391-31.273 16.66-42.607-10.269-11.333-16.66-26.16-16.66-42.607v-213.034c0-16.446 6.391-31.273 16.66-42.607-10.269-11.333-16.66-26.16-16.66-42.607v-213.034c0-35.236 28.675-63.91 63.91-63.91h362.159c11.76 0 21.303 9.544 21.303 21.303s-9.544 21.303-21.303 21.303zM43.325 896.089c0 11.717 9.587 21.303 21.303 21.303h809.531c11.717 0 21.303-9.587 21.303-21.303v-213.034c0-11.717-9.587-21.303-21.303-21.303h-809.531c-11.717 0-21.303 9.587-21.303 21.303v213.034zM107.235 193.076c0-35.236 28.675-63.91 63.91-63.91s63.91 28.675 63.91 63.91c0 35.236-28.675 63.91-63.91 63.91s-63.91-28.675-63.91-63.91zM192.448 193.076c0-11.717-9.587-21.303-21.303-21.303s-21.303 9.587-21.303 21.303c0 11.717 9.587 21.303 21.303 21.303s21.303-9.587 21.303-21.303z" />
<glyph unicode="&#xe933;" glyph-name="server-favorite-heart-1" d="M886.469 405.335c-40.574 0-88.359-20.948-118.48-76.114-30.122 55.166-77.906 76.114-118.48 76.114-67.581 0-137.509-56.446-137.509-150.905 0-135.717 233.505-307.102 243.445-314.311 3.755-2.731 8.107-4.096 12.543-4.096s8.789 1.365 12.543 4.096c9.941 7.211 243.445 178.595 243.445 314.311 0 94.46-69.928 150.905-137.509 150.905zM767.989-16.023c-69.544 53.161-213.324 181.453-213.324 270.452 0 67.752 48.211 108.24 94.844 108.24 46.377 0 82.897-36.862 97.745-98.641 4.651-19.156 36.819-19.156 41.513 0 14.804 61.778 51.326 98.641 97.703 98.641 46.633 0 94.844-40.489 94.844-108.24 0-88.913-143.781-217.292-213.324-270.452zM426.671 448c-226.294 0-383.983 78.717-383.983 149.327v86.097c68.392-64.082 212.684-107.43 383.983-107.43 171.342 0 315.591 43.347 383.983 107.43v-107.43c0-11.775 9.557-21.332 21.332-21.332s21.332 9.557 21.332 21.332v191.992c0 107.643-187.427 191.992-426.649 191.992s-426.649-84.348-426.649-191.992v-554.643c0-100.903 161.060-181.24 383.044-191.096 13.439 0 21.802 9.643 22.228 20.394 0.555 11.775-8.576 21.759-20.351 22.271-211.404 9.344-342.257 84.305-342.257 148.431v106.15c58.664-54.91 173.646-94.289 318.578-103.975 11.179-0.896 21.93 7.723 22.698 19.882 0.811 11.732-8.107 21.93-19.882 22.698-180.216 12.074-321.394 76.754-321.394 147.237v107.43c68.392-64.082 212.684-107.43 383.983-107.43 11.775 0 21.332 9.557 21.332 21.332s-9.557 21.332-21.332 21.332zM426.671 917.313c226.294 0 383.983-78.717 383.983-149.327s-157.689-149.327-383.983-149.327c-226.294 0-383.983 78.717-383.983 149.327s157.689 149.327 383.983 149.327z" />
<glyph unicode="&#xe934;" glyph-name="server-sync-1" d="M489.186 473.505c-19.459-1.302-39.406-2.035-59.679-2.035-215.921 0-366.382 75.108-366.382 142.481v82.151c65.257-61.145 202.934-102.506 366.382-102.506 163.487 0 301.125 41.36 366.382 102.506v-143.214c0-11.236 9.119-20.354 20.354-20.354s20.354 9.119 20.354 20.354v223.9c0 102.709-178.835 183.191-407.091 183.191s-407.091-80.482-407.091-183.191v-529.218c0-102.709 178.835-183.191 407.091-183.191 11.236 0 20.354 9.119 20.354 20.354s-9.119 20.354-20.354 20.354c-215.921 0-366.382 75.108-366.382 142.481v102.506c65.257-61.145 202.934-102.506 366.382-102.506 11.236 0 20.354 9.119 20.354 20.354s-9.119 20.354-20.354 20.354c-215.921 0-366.382 75.108-366.382 142.481v102.506c65.257-61.145 202.934-102.506 366.382-102.506 21.209 0 42.053 0.733 62.448 2.117 11.195 0.774 19.662 10.503 18.93 21.698-0.814 11.195-10.747 20.273-21.698 18.93zM429.507 919.27c215.921 0 366.382-75.108 366.382-142.481s-150.461-142.481-366.382-142.481c-215.921 0-366.382 75.108-366.382 142.481s150.461 142.481 366.382 142.481zM984.086 395.1c-10.788 2.768-21.942-3.827-24.711-14.696l-14.167-55.405c-90.618 145.576-304.097 139.266-386.207-10.34-95.626-174.153 67.536-378.635 258.91-322.66 10.788 3.134 16.976 14.411 13.8 25.239-3.134 10.788-14.33 17.017-25.239 13.8-155.427-45.39-290.5 120.621-211.81 263.998 69.735 126.89 253.251 126.524 321.886-1.507l-72.38 18.441c-11.073 2.89-21.983-3.867-24.711-14.696-2.768-10.91 3.827-21.942 14.696-24.711l111.502-28.375c10.259-2.687 21.82 3.42 24.711 14.696l28.415 111.502c2.809 10.869-3.786 21.942-14.696 24.711z" />
<glyph unicode="&#xe935;" glyph-name="computer-line-graph" d="M938.647 895.997h-853.315c-47.060 0-85.331-40.020-85.331-89.129v-632.391c0-49.108 38.271-89.129 85.331-89.129h383.992v-42.666h-255.994c-11.776 0-21.333-9.557-21.333-21.333s9.557-21.333 21.333-21.333h597.32c11.776 0 21.333 9.557 21.333 21.333s-9.557 21.333-21.333 21.333h-298.661v42.666h426.658c47.060 0 85.331 40.020 85.331 89.129v632.391c0 49.108-38.271 89.129-85.331 89.129zM85.331 853.331h853.315c23.551 0 42.666-20.821 42.666-46.463v-508.192h-938.647v97.833l223.995 223.995 155.56-155.56c8.32-8.32 21.845-8.32 30.164 0l159.997 159.997c8.32 8.32 8.32 21.845 0 30.164s-21.845 8.32-30.164 0l-144.893-144.893-155.56 155.56c-8.32 8.32-21.845 8.32-30.164 0l-208.934-208.934v350.029c0 25.642 19.115 46.463 42.666 46.463zM938.647 128.013h-853.315c-23.551 0-42.666 20.821-42.666 46.463v81.534h938.647v-81.534c0-25.642-19.115-46.463-42.666-46.463zM542.159 222.179c16.662-16.662 16.662-43.676 0-60.339s-43.676-16.662-60.339 0c-16.662 16.662-16.662 43.676 0 60.339s43.676 16.662 60.339 0zM789.146 512.005c-23.551 0-42.666 19.115-42.666 42.666 0 11.776-9.557 21.333-21.333 21.333s-21.333-9.557-21.333-21.333c0-39.636 27.306-72.745 63.999-82.302v-24.362c0-11.776 9.557-21.333 21.333-21.333s21.333 9.557 21.333 21.333v24.362c36.692 9.557 63.999 42.666 63.999 82.302 0 47.060-38.271 85.331-85.331 85.331-23.551 0-42.666 19.115-42.666 42.666s19.115 42.666 42.666 42.666c23.551 0 42.666-19.115 42.666-42.666 0-11.776 9.557-21.333 21.333-21.333s21.333 9.557 21.333 21.333c0 39.636-27.306 72.745-63.999 82.302v24.362c0 11.776-9.557 21.333-21.333 21.333s-21.333-9.557-21.333-21.333v-24.362c-36.692-9.557-63.999-42.666-63.999-82.302 0-47.060 38.271-85.331 85.331-85.331 23.551 0 42.666-19.115 42.666-42.666s-19.115-42.666-42.666-42.666z" />
<glyph unicode="&#xe936;" glyph-name="window-pie-graph" d="M917.316 917.313h-810.632c-58.834 0-106.662-47.827-106.662-106.662v-725.302c0-58.834 47.827-106.662 106.662-106.662h810.632c58.834 0 106.662 47.827 106.662 106.662v725.302c0 58.834-47.827 106.662-106.662 106.662zM106.684 874.649h810.632c35.283 0 63.997-28.714 63.997-63.997v-106.662h-938.626v106.662c0 35.283 28.714 63.997 63.997 63.997zM917.316 21.351h-810.632c-35.283 0-63.997 28.714-63.997 63.997v575.975h938.626v-575.975c0-35.283-28.714-63.997-63.997-63.997zM200.85 819.487c16.661-16.661 16.661-43.675 0-60.337s-43.675-16.661-60.337 0c-16.661 16.661-16.661 43.675 0 60.337s43.675 16.661 60.337 0zM328.845 819.487c16.661-16.661 16.661-43.675 0-60.337s-43.675-16.661-60.337 0c-16.661 16.661-16.661 43.675 0 60.337s43.675 16.661 60.337 0zM456.839 819.487c16.661-16.661 16.661-43.675 0-60.337s-43.675-16.661-60.337 0c-16.661 16.661-16.661 43.675 0 60.337s43.675 16.661 60.337 0zM474.455 534.311c-0.256 0.213-0.427 0.555-0.725 0.768-0.213 0.128-0.427 0.128-0.64 0.256-37.545 25.599-82.897 40.659-131.749 40.659-129.359 0-234.657-105.296-234.657-234.657s105.296-234.657 234.657-234.657c56.915 0 109.136 20.436 149.797 54.227 0.213 0.128 0.469 0.171 0.64 0.341 0.256 0.213 0.384 0.555 0.64 0.768 51.027 43.091 83.623 107.472 83.623 179.32-0.043 79.954-40.318 150.607-101.585 192.973zM341.34 533.329c32.511 0 62.674-8.875 89.553-23.167l-100.86-147.493h-178.509c10.752 95.74 91.217 170.66 189.816 170.66zM151.525 320.006h179.875l115.792-138.618c-30.378-20.18-66.728-32.042-105.851-32.042-98.599 0-179.064 74.92-189.816 170.66zM479.745 208.906l-111.696 133.711 98.044 143.439c40.83-35.241 67.24-86.695 67.24-144.719 0-51.411-20.564-97.916-53.587-132.431zM639.994 533.329h255.989v-42.665h-255.989zM639.994 405.335h255.989v-42.665h-255.989zM639.994 277.34h255.989v-42.665h-255.989z" />
<glyph unicode="&#xe937;" glyph-name="graph-bar-line" d="M1002.635-21.302h-21.332v618.64c0 11.775-9.557 21.332-21.332 21.332h-127.994c-11.775 0-21.332-9.557-21.332-21.332v-618.64h-85.329v319.986c0 11.775-9.557 21.332-21.332 21.332h-127.994c-11.775 0-21.332-9.557-21.332-21.332v-319.986h-85.329v405.316c0 11.775-9.557 21.332-21.332 21.332h-127.994c-11.775 0-21.332-9.557-21.332-21.332v-405.316h-85.329v191.992c0 11.775-9.557 21.332-21.332 21.332h-127.994c-11.775 0-21.332-9.557-21.332-21.332v-191.992h-21.332c-11.775 0-21.332-9.557-21.332-21.332s9.557-21.332 21.332-21.332h981.291c11.775 0 21.332 9.557 21.332 21.332s-9.557 21.332-21.332 21.332zM85.34-21.302v170.66h85.329v-170.66h-85.329zM341.329-21.302v383.983h85.329v-383.983h-85.329zM597.318-21.302v298.654h85.329v-298.654h-85.329zM853.307-21.302v597.307h85.329v-597.307h-85.329zM128.006 405.346c35.283 0 63.997 28.714 63.997 63.997 0 7.765-1.579 15.146-4.181 22.058l163.662 136.442c9.6-5.675 20.607-9.173 32.511-9.173 20.436 0 38.483 9.813 50.217 24.788l141.903-47.273c0.64-34.771 29.012-62.845 63.869-62.845 35.283 0 63.997 28.714 63.997 63.997 0 11.563-3.328 22.314-8.747 31.7l177.784 207.394c7.125-2.773 14.847-4.437 22.954-4.437 35.283 0 63.997 28.714 63.997 63.997s-28.714 63.997-63.997 63.997c-35.283 0-63.997-28.714-63.997-63.997 0-11.563 3.328-22.271 8.704-31.7l-177.784-207.394c-7.125 2.731-14.847 4.437-22.911 4.437-20.436 0-38.441-9.813-50.217-24.788l-141.903 47.315c-0.683 34.687-29.012 62.802-63.869 62.802-35.283 0-63.997-28.714-63.997-63.997 0-7.808 1.579-15.188 4.181-22.058l-163.662-136.442c-9.6 5.675-20.607 9.173-32.511 9.173-35.283 0-63.997-28.714-63.997-63.997s28.714-63.997 63.997-63.997zM895.972 917.324c11.732 0 21.332-9.557 21.332-21.332s-9.6-21.332-21.332-21.332c-11.732 0-21.332 9.557-21.332 21.332s9.6 21.332 21.332 21.332zM639.983 618.671c11.732 0 21.332-9.557 21.332-21.332s-9.6-21.332-21.332-21.332c-11.732 0-21.332 9.557-21.332 21.332s9.6 21.332 21.332 21.332zM383.995 704c11.732 0 21.332-9.557 21.332-21.332s-9.6-21.332-21.332-21.332c-11.732 0-21.332 9.557-21.332 21.332s9.6 21.332 21.332 21.332zM128.006 490.676c11.732 0 21.332-9.557 21.332-21.332s-9.6-21.332-21.332-21.332c-11.732 0-21.332 9.557-21.332 21.332s9.6 21.332 21.332 21.332z" />
<glyph unicode="&#xe938;" glyph-name="business-check" d="M265.957 616.83c93.866 0 170.2 76.335 170.2 170.2s-76.335 170.2-170.2 170.2c-93.866 0-170.2-76.335-170.2-170.2s76.335-170.2 170.2-170.2zM265.957 914.68c70.378 0 127.65-57.272 127.65-127.65s-57.272-127.65-127.65-127.65c-70.378 0-127.65 57.272-127.65 127.65s57.272 127.65 127.65 127.65zM499.981 574.28h-468.050c-11.744 0-21.275-9.531-21.275-21.275 0-151.222 54.081-271.044 148.925-331.167v-264.534c0-11.744 9.531-21.275 21.275-21.275h170.2c11.744 0 21.275 9.531 21.275 21.275v264.534c94.844 60.166 148.925 179.987 148.925 331.167 0 11.744-9.531 21.275-21.275 21.275zM267.658 531.73l18.807-225.984-20.509-20.509-20.509 20.509 18.807 225.984h3.404zM340.546 252.389c-6.638-3.787-10.765-10.85-10.765-18.509v-255.3h-127.65v255.3c0 7.659-4.128 14.723-10.765 18.509-83.313 47.358-132.927 148.5-137.777 279.341h167.988l-19.36-232.238c-0.511-6.212 1.744-12.425 6.17-16.807l42.55-42.55c4.128-4.17 9.574-6.255 15.020-6.255s10.893 2.085 15.063 6.212l42.55 42.55c4.425 4.425 6.681 10.595 6.17 16.807l-19.403 232.28h167.988c-4.851-130.798-54.464-231.94-137.777-279.341zM1002.072 952.975c-9.446 7.021-22.765 5.149-29.785-4.255l-85.993-114.545c-50.039 49.699-118.885 80.504-194.837 80.504-65.867 0-129.65-23.531-179.688-66.335-8.936-7.616-10-21.062-2.341-29.998s21.062-10 29.998-2.341c42.295 36.168 96.291 56.123 152.031 56.123 66.421 0 126.289-27.912 168.924-72.505l-166.413-221.685-95.95 95.908c-8.297 8.297-21.785 8.297-30.083 0s-8.297-21.785 0-30.083l113.269-113.269c4-4.042 9.403-6.212 15.063-6.212 0.511 0 0.978 0 1.489 0.043 6.17 0.426 11.829 3.531 15.53 8.425l174.455 232.408c23.743-36.636 37.742-80.207 37.742-127.055 0-129.054-104.971-234.026-234.026-234.026-31.87 0-62.761 6.298-91.78 18.68-10.765 4.595-23.275-0.383-27.912-11.233-4.595-10.807 0.426-23.317 11.233-27.912 34.381-14.68 70.889-22.126 108.503-22.126 152.499 0 276.575 124.076 276.575 276.575 0 60.889-20.041 117.055-53.485 162.797l91.78 122.246c6.978 9.489 5.106 22.806-4.297 29.87z" />
<glyph unicode="&#xe939;" glyph-name="beach" d="M210.926 434.158c2.085-5.233 6.169-9.444 11.316-11.657 2.68-1.149 5.573-1.744 8.466-1.744 2.637 0 5.317 0.51 7.87 1.489l98.865 39.223c5.233 2.085 9.444 6.169 11.657 11.358l15.442 35.691 35.691-15.485c5.19-2.212 11.060-2.34 16.293-0.255l177.949 70.532 121.922-307.571c-93.93-5.786-179.353-37.436-237.804-89.251-8.806-7.828-9.615-21.228-1.787-30.034 4.212-4.722 10.039-7.147 15.91-7.147 5.020 0 10.039 1.787 14.123 5.36 55.942 49.56 145.107 79.254 238.739 79.637 0.638-0.085 1.149-0.595 1.871-0.595 1.149 0 2.34 0.468 3.489 0.681h251.757c11.741 0 21.27 9.529 21.27 21.27s-9.529 21.27-21.27 21.27h-241.079l-127.623 322.035 177.991 70.575c5.275 2.085 9.444 6.169 11.698 11.316l15.442 35.691 35.691-15.399c5.233-2.254 11.018-2.34 16.293-0.255l98.823 39.18c10.891 4.382 16.251 16.676 11.912 27.566l-15.655 39.563c-38.414 96.95-130.77 150.339-260.052 150.339-66.747 0-141.533-15.23-217.214-42.966l-8.125 20.547c-4.339 10.976-16.803 16.336-27.651 11.997-10.933-4.339-16.251-16.719-11.954-27.609l8.040-20.292c-98.95-42.286-180.543-100.269-230.742-165.016-59.983-77.382-74.914-160.506-43.264-240.441l15.698-39.606zM272.142 688.127c48.879 63.088 131.408 119.881 232.358 159.868 77.637 30.8 154.253 47.008 221.638 47.008 110.649 0 188.966-43.817 220.532-123.454l7.828-19.782-70.915-28.12-47.136 20.377c-10.763 4.637-23.312-0.255-27.949-11.060l-20.377-47.093-379.124-150.297-47.136 20.42c-5.148 2.254-11.018 2.34-16.251 0.255s-9.444-6.169-11.698-11.358l-20.377-47.178-70.915-28.12-7.828 19.824c-32.629 82.317 2.297 153.53 37.351 198.708zM1002.697 1.007c-29.524 0-63.811 27.865-63.811 63.811 0 11.741-9.529 21.27-21.27 21.27s-21.27-9.529-21.27-21.27c0-35.947-34.288-63.811-63.811-63.811s-63.811 27.865-63.811 63.811c0 11.741-9.529 21.27-21.27 21.27s-21.27-9.529-21.27-21.27c0-35.947-34.288-63.811-63.811-63.811s-63.811 27.865-63.811 63.811c0 11.741-9.529 21.27-21.27 21.27s-21.27-9.529-21.27-21.27c0-35.947-34.288-63.811-63.811-63.811s-63.811 27.865-63.811 63.811c0 11.741-9.529 21.27-21.27 21.27s-21.27-9.529-21.27-21.27c0-35.947-34.288-63.811-63.811-63.811s-63.811 27.865-63.811 63.811c0 11.741-9.529 21.27-21.27 21.27s-21.27-9.529-21.27-21.27c0-35.947-34.288-63.811-63.811-63.811s-63.811 27.865-63.811 63.811c0 11.741-9.529 21.27-21.27 21.27s-21.27-9.529-21.27-21.27c0-22.632-17.101-42.158-33.097-52.879-9.742-6.466-12.422-19.697-5.871-29.438 6.509-9.784 19.739-12.422 29.481-5.871 11.741 7.828 21.739 17.144 29.779 27.354 19.739-27.141 51.602-45.518 86.061-45.518 33.905 0 65.343 17.782 85.081 44.242 19.739-26.461 51.177-44.242 85.081-44.242s65.343 17.782 85.081 44.242c19.739-26.461 51.177-44.242 85.081-44.242s65.343 17.782 85.081 44.242c19.739-26.461 51.177-44.242 85.081-44.242s65.343 17.782 85.081 44.242c19.739-26.461 51.177-44.242 85.081-44.242s65.343 17.782 85.081 44.242c19.739-26.461 51.177-44.242 85.081-44.242 11.741 0 21.27 9.529 21.27 21.27s-9.529 21.27-21.27 21.27z" />
<glyph unicode="&#xe93a;" glyph-name="medical-box" d="M703.992 448h-106.662v106.662c0 11.775-9.557 21.332-21.332 21.332h-127.994c-11.775 0-21.332-9.557-21.332-21.332v-106.662h-106.662c-11.775 0-21.332-9.557-21.332-21.332v-127.994c0-11.775 9.557-21.332 21.332-21.332h106.662v-106.662c0-11.775 9.557-21.332 21.332-21.332h127.994c11.775 0 21.332 9.557 21.332 21.332v106.662h106.662c11.775 0 21.332 9.557 21.332 21.332v127.994c0 11.775-9.557 21.332-21.332 21.332zM682.66 320.006h-106.662c-11.775 0-21.332-9.557-21.332-21.332v-106.662h-85.329v106.662c0 11.775-9.557 21.332-21.332 21.332h-106.662v85.329h106.662c11.775 0 21.332 9.557 21.332 21.332v106.662h85.329v-106.662c0-11.775 9.557-21.332 21.332-21.332h106.662v-85.329zM917.316 746.654h-234.657v42.665c0 47.102-38.27 85.329-85.329 85.329h-170.66c-47.059 0-85.329-38.227-85.329-85.329v-42.665h-234.657c-58.834 0-106.662-47.87-106.662-106.662v-511.978c0-58.792 47.827-106.662 106.662-106.662h810.632c58.834 0 106.662 47.87 106.662 106.662v511.978c0 58.792-47.827 106.662-106.662 106.662zM384.006 789.318c0 23.508 19.114 42.665 42.665 42.665h170.66c23.551 0 42.665-19.156 42.665-42.665v-42.665h-255.989v42.665zM981.313 128.014c0-35.283-28.714-63.997-63.997-63.997h-810.632c-35.283 0-63.997 28.714-63.997 63.997v511.978c0 35.283 28.714 63.997 63.997 63.997h810.632c35.283 0 63.997-28.714 63.997-63.997v-511.978z" />
<glyph unicode="&#xe93b;" glyph-name="apple-1" d="M484.566 671.446c-23.764 13.738-56.361 32.554-143.226 32.554-143.525 0-255.989-140.538-255.989-319.986 0-168.782 129.615-447.981 277.321-447.981 76.882 0 99.452 14.591 119.206 32.17 8.021 7.211 11.732 10.496 30.122 10.496s22.1-3.285 30.122-10.496c19.754-17.578 42.323-32.17 119.206-32.17 147.706 0 277.321 279.199 277.321 447.981 0 179.448-112.464 319.986-255.989 319.986-86.865 0-119.462-18.815-143.226-32.554-2.432-1.365-4.011-2.005-6.101-3.115v57.001c0 58.834-47.827 106.662-106.662 106.662h-85.329c-11.775 0-21.332-9.557-21.332-21.332s9.557-21.332 21.332-21.332h85.329c35.283 0 63.997-28.714 63.997-63.997v-57.001c-2.091 1.109-3.669 1.749-6.101 3.115zM560.766 634.499c20.692 11.946 46.462 26.836 121.894 26.836 119.632 0 213.324-121.808 213.324-277.321 0-163.748-123.6-405.316-234.657-405.316-66.813 0-79.57 11.349-90.791 21.375-13.524 12.031-26.452 21.29-58.536 21.29s-45.011-9.259-58.536-21.29c-11.221-10.027-23.978-21.375-90.791-21.375-111.056 0-234.657 241.569-234.657 405.316 0 155.513 93.692 277.321 213.324 277.321 75.432 0 101.201-14.89 121.894-26.836 13.524-7.808 27.434-15.828 48.766-15.828s35.241 8.021 48.766 15.828zM810.654 938.657c0 11.775-9.557 21.332-21.332 21.332-117.627 0-213.324-95.697-213.324-213.324 0-11.775 9.557-21.332 21.332-21.332 117.627 0 213.324 95.697 213.324 213.324zM766.453 915.788c-10.155-75.816-70.397-136.058-146.255-146.255 10.155 75.816 70.44 136.101 146.255 146.255z" />
<glyph unicode="&#xe93c;" glyph-name="location-pin-group" d="M533.12 596.324c-63.637 0-115.361-51.766-115.361-115.361s51.724-115.361 115.361-115.361c63.637 0 115.361 51.724 115.361 115.361 0 63.596-51.766 115.361-115.361 115.361zM533.12 407.55c-40.481 0-73.412 32.93-73.412 73.412s32.93 73.412 73.412 73.412c40.481 0 73.412-32.93 73.412-73.412 0-40.523-32.93-73.412-73.412-73.412zM965.159 874.408c-41.572 49.039-105.587 76.096-180.341 76.096-75.3 0-139.86-27.729-181.768-78.026-38.552-46.27-55.122-109.237-46.942-174.72-7.593 0.587-15.185 1.049-22.988 1.049-23.073 0-44.928-2.895-65.651-7.971 9.942 70.392-6.628 135.371-47.403 183.53-41.53 49.081-105.587 76.138-180.341 76.138-75.3 0-139.86-27.729-181.809-78.026-41.488-49.794-57.89-118.885-44.97-189.57 12.039-65.819 61.037-139.231 108.398-210.251 47.865-71.734 97.365-145.901 97.365-198.338v-56.129c0-11.62 9.396-20.974 20.974-20.974s20.974 9.355 20.974 20.974v56.129c0 34.818 22.653 81.844 52.101 131.092 18.206-58.897 60.659-122.577 101.98-184.452 47.865-71.734 97.365-145.901 97.365-198.338v-56.129c0-11.62 9.396-20.974 20.974-20.974s20.974 9.355 20.974 20.974v56.129c0 54.283 52.899 134.742 104.035 212.601 29.323 44.55 57.555 87.591 77.145 127.065 15.605-29.491 28.568-61.079 28.568-87.968v-56.129c0-11.62 9.396-20.974 20.974-20.974s20.974 9.355 20.974 20.974v56.129c0 54.283 52.899 134.742 104.035 212.601 47.571 72.405 92.541 140.741 101.854 196.282 12.333 73.328-4.195 141.245-46.48 191.207zM239.556 357.002c-19.758 43.753-50.969 90.569-83.27 138.937-45.054 67.455-91.618 137.175-102.106 194.479-10.655 58.436 2.433 115.026 35.95 155.214 34.314 41.153 86.038 62.924 149.592 62.924 63.134 0 114.439-21.185 148.333-61.246 34.147-40.397 47.319-96.191 37.125-157.143-0.839-5.034-2.601-10.488-4.237-15.815-27.015-13.088-50.717-30.875-69.637-53.569-34.189-41.027-51.052-95.225-48.787-152.486-26.806-41.865-48.494-78.572-62.967-111.293zM623.102 258.253c-34.021-51.724-68.713-104.538-90.065-153.2-19.758 43.838-51.011 90.695-83.354 139.189-45.012 67.455-91.576 137.175-102.063 194.479-10.697 58.436 2.391 114.983 35.909 155.214 16.99 20.387 38.3 35.95 63.092 46.48 0.546 0.209 1.090 0.42 1.678 0.713 24.96 10.32 53.402 15.731 84.822 15.731 15.731 0 30.707-1.342 44.886-3.944 0.252-0.042 0.503-0.126 0.797-0.168 42.327-7.928 77.355-27.226 102.693-57.135 34.147-40.355 47.361-96.191 37.168-157.143-7.886-46.858-52.479-114.648-95.561-180.215zM970.318 690.123c-7.845-46.816-52.437-114.606-95.519-180.173-34.021-51.724-68.713-104.538-90.065-153.2-8.726 19.507-19.213 38.006-29.406 55.164 1.971 6.67 3.607 13.214 4.656 19.59 12.291 73.37-4.237 141.245-46.522 191.207-28.61 33.811-68.084 56.841-114.187 68.126-10.571 58.31 2.517 114.69 35.95 154.794 34.357 41.153 86.081 62.924 149.592 62.924 63.092 0 114.397-21.185 148.333-61.246 34.147-40.397 47.361-96.232 37.168-157.185zM784.817 848.021c-63.637 0-115.361-51.766-115.361-115.361s51.724-115.361 115.361-115.361c63.637 0 115.361 51.724 115.361 115.361 0 63.596-51.766 115.361-115.361 115.361zM784.817 659.248c-40.481 0-73.412 32.93-73.412 73.412s32.93 73.412 73.412 73.412c40.481 0 73.412-32.93 73.412-73.412 0-40.523-32.93-73.412-73.412-73.412zM355.085 732.618c0 63.637-51.724 115.361-115.361 115.361s-115.361-51.766-115.361-115.361c0-63.596 51.724-115.361 115.361-115.361s115.361 51.766 115.361 115.361zM239.724 659.248c-40.481 0-73.412 32.93-73.412 73.412s32.93 73.412 73.412 73.412c40.481 0 73.412-32.93 73.412-73.412 0-40.523-32.93-73.412-73.412-73.412z" />
<glyph unicode="&#xe93d;" glyph-name="account-group-4" d="M234.668 597.322h-213.324c-11.775 0-21.332-9.557-21.332-21.332v-127.994c0-46.206 14.335-73.81 42.665-82.428v-173.561c0-11.775 9.557-21.332 21.332-21.332h127.994c11.775 0 21.332 9.557 21.332 21.332v173.561c28.287 8.619 42.622 36.222 42.665 82.428v127.994c0 11.775-9.557 21.332-21.332 21.332zM213.335 447.995c-0.043-42.665-11.86-42.665-21.332-42.665-11.775 0-21.332-9.557-21.332-21.332v-170.66h-85.329v170.66c0 11.775-9.557 21.332-21.332 21.332-9.515 0-21.332 0-21.332 42.665v106.662h170.66v-106.662zM1002.635 597.322h-213.324c-11.775 0-21.332-9.557-21.332-21.332v-127.994c0-46.206 14.335-73.81 42.665-82.428v-173.561c0-11.775 9.557-21.332 21.332-21.332h127.994c11.775 0 21.332 9.557 21.332 21.332v173.561c28.287 8.619 42.622 36.222 42.665 82.428v127.994c0 11.775-9.557 21.332-21.332 21.332zM981.302 447.995c-0.043-42.665-11.86-42.665-21.332-42.665-11.775 0-21.332-9.557-21.332-21.332v-170.66h-85.329v170.66c0 11.775-9.557 21.332-21.332 21.332-9.515 0-21.332 0-21.332 42.665v106.662h170.66v-106.662zM661.316 597.322h-298.654c-11.775 0-21.332-9.557-21.332-21.332v-213.324c0-51.539 36.691-94.588 85.329-104.528v-236.79c0-11.775 9.557-21.332 21.332-21.332h127.994c11.775 0 21.332 9.557 21.332 21.332v236.79c48.638 9.899 85.329 52.99 85.329 104.528v213.324c0 11.775-9.557 21.332-21.332 21.332zM639.983 362.665c0-35.283-28.714-63.997-63.997-63.997-11.775 0-21.332-9.557-21.332-21.332v-234.657h-85.329v234.657c0 11.775-9.557 21.332-21.332 21.332-35.283 0-63.997 28.714-63.997 63.997v191.992h255.989v-191.992zM128.006 639.987c47.059 0 85.329 38.27 85.329 85.329 0 47.102-38.27 85.329-85.329 85.329s-85.329-38.227-85.329-85.329c0-47.059 38.27-85.329 85.329-85.329zM128.006 767.981c23.508 0 42.665-19.156 42.665-42.665s-19.156-42.665-42.665-42.665c-23.508 0-42.665 19.156-42.665 42.665s19.156 42.665 42.665 42.665zM895.972 639.987c47.059 0 85.329 38.27 85.329 85.329 0 47.102-38.27 85.329-85.329 85.329s-85.329-38.227-85.329-85.329c0-47.059 38.27-85.329 85.329-85.329zM895.972 767.981c23.508 0 42.665-19.156 42.665-42.665s-19.156-42.665-42.665-42.665c-23.508 0-42.665 19.156-42.665 42.665s19.156 42.665 42.665 42.665zM511.989 639.987c70.568 0 127.994 57.427 127.994 127.994s-57.427 127.994-127.994 127.994c-70.568 0-127.994-57.427-127.994-127.994s57.427-127.994 127.994-127.994zM511.989 853.311c47.059 0 85.329-38.227 85.329-85.329 0-47.059-38.27-85.329-85.329-85.329s-85.329 38.27-85.329 85.329c0 47.102 38.27 85.329 85.329 85.329z" />
<glyph unicode="&#xe93e;" glyph-name="car-10" d="M1002.602 320.008h-21.332v127.992c0 47.058-38.27 85.327-85.327 85.327h-50.813l-79.44 158.881c-3.627 7.211-11.007 11.775-19.071 11.775h-405.307c-8.106 0-15.487-4.565-19.114-11.775l-79.44-158.881h-157.43c-47.058 0-85.327-38.27-85.327-85.327v-149.323c0-11.775 9.514-21.332 21.332-21.332h66.129c9.898-48.637 52.989-85.327 104.526-85.327s94.586 36.691 104.526 85.327h388.284c9.898-48.637 52.989-85.327 104.526-85.327s94.586 36.691 104.526 85.327h108.793c11.775 0 21.332 9.556 21.332 21.332s-9.599 21.332-21.375 21.332zM42.664 448c0 23.55 19.156 42.664 42.664 42.664h170.656c8.063 0 15.444 4.565 19.071 11.775l79.44 158.881h378.94l79.44-158.881c3.584-7.211 10.964-11.775 19.071-11.775h63.996c23.507 0 42.664-19.114 42.664-42.664v-127.992h-44.797c-9.898 48.637-52.989 85.327-104.526 85.327s-94.586-36.691-104.526-85.327h-388.284c-9.898 48.637-52.989 85.327-104.526 85.327s-94.586-36.691-104.526-85.327h-44.754v127.992zM191.988 234.681c-35.326 0-63.996 28.713-63.996 63.996s28.67 63.996 63.996 63.996c35.326 0 63.996-28.713 63.996-63.996s-28.713-63.996-63.996-63.996zM789.282 234.681c-35.283 0-63.996 28.713-63.996 63.996s28.713 63.996 63.996 63.996c35.283 0 63.996-28.713 63.996-63.996s-28.713-63.996-63.996-63.996zM353.086 492.925c3.072-1.536 6.315-2.261 9.514-2.261 7.85 0 15.359 4.352 19.114 11.775l36.777 73.552h29.481c11.775 0 21.332 9.556 21.332 21.332s-9.556 21.332-21.332 21.332h-42.664c-8.063 0-15.444-4.565-19.071-11.775l-42.664-85.327c-5.291-10.538-1.024-23.337 9.514-28.627z" />
<glyph unicode="&#xe93f;" glyph-name="globe-setting" d="M999.658 280.42c1.451 5.461 0.725 11.307-2.133 16.171l-63.999 110.846c-5.888 10.197-18.901 13.696-29.14 7.808l-33.066-19.072c-18.176 14.507-38.484 26.111-60.671 34.772v38.399c0 11.776-9.557 21.333-21.333 21.333h-127.997c-11.776 0-21.333-9.557-21.333-21.333v-38.399c-22.187-8.619-42.495-20.267-60.671-34.73l-33.066 19.072c-10.197 5.888-23.252 2.389-29.14-7.808l-63.999-110.846c-2.816-4.907-3.584-10.709-2.133-16.171s5.035-10.112 9.941-12.971l32.639-18.816c-3.84-23.978-3.84-46.634 0-70.569l-32.554-18.773c-10.197-5.931-13.696-18.944-7.808-29.14l63.999-110.846c5.888-10.197 18.901-13.696 29.14-7.808l33.023 19.029c18.219-14.464 38.527-26.111 60.671-34.687v-38.399c0-11.776 9.557-21.333 21.333-21.333h127.997c11.776 0 21.333 9.557 21.333 21.333v38.399c22.144 8.619 42.452 20.224 60.671 34.687l33.023-19.029c10.24-5.888 23.252-2.389 29.14 7.808l63.999 110.846c5.888 10.197 2.389 23.21-7.808 29.14l-32.554 18.773c3.84 23.978 3.84 46.591 0 70.569l32.639 18.816c4.821 2.773 8.405 7.467 9.856 12.928zM912.492 171.75c-2.005-9.088 2.091-18.432 10.155-23.125l27.178-15.744-42.666-73.854-27.562 15.915c-7.979 4.651-18.133 3.541-25.044-2.731-20.395-18.603-44.458-32.426-71.678-41.044-8.875-2.773-14.891-11.008-14.891-20.309v-32.17h-85.331v32.17c0 9.301-6.016 17.536-14.891 20.352-27.22 8.619-51.327 22.443-71.678 41.044-6.912 6.272-17.024 7.339-25.044 2.731l-27.562-15.915-42.666 73.854 27.178 15.744c8.064 4.651 12.203 14.037 10.155 23.125-6.4 28.714-6.4 54.356 0 83.113 2.005 9.045-2.091 18.432-10.155 23.125l-27.263 15.744 42.666 73.854 27.647-15.915c8.021-4.651 18.176-3.541 25.044 2.731 20.309 18.56 44.415 32.383 71.721 41.044 8.832 2.859 14.848 11.051 14.848 20.352v32.17h85.331v-32.17c0-9.301 6.016-17.493 14.848-20.352 27.306-8.704 51.412-22.485 71.721-41.044 6.869-6.315 17.024-7.424 25.044-2.731l27.647 15.915 42.666-73.854-27.263-15.744c-8.064-4.693-12.203-14.037-10.155-23.125 6.4-28.756 6.4-54.399 0-83.155zM725.317 320.014c-58.794 0-106.665-47.871-106.665-106.665s47.871-106.665 106.665-106.665c58.794 0 106.665 47.871 106.665 106.665s-47.871 106.665-106.665 106.665zM725.317 149.35c-35.284 0-63.999 28.714-63.999 63.999s28.714 63.999 63.999 63.999c35.284 0 63.999-28.714 63.999-63.999s-28.714-63.999-63.999-63.999zM892.696 789.124c-1.451 2.432-3.328 4.48-5.675 6.229-60.671 65.45-137.768 115.283-225.147 142.12-0.64 0.213-1.237 0.384-1.877 0.512-46.89 14.208-96.553 22.016-148.008 22.016-282.319 0-511.989-229.67-511.989-511.989s229.67-511.989 511.989-511.989c11.776 0 21.333 9.557 21.333 21.333s-9.557 21.333-21.333 21.333c-258.767 0-469.323 210.512-469.323 469.323 0 258.767 210.555 469.323 469.323 469.323 29.439 0 58.196-3.072 86.185-8.277l-139.432-79.913c-6.4-3.669-10.453-10.411-10.709-17.792s3.328-14.379 9.472-18.475l54.484-36.308v-95.23h-223.91c-7.253 0-14.037-3.669-17.92-9.771l-96.083-149.33c-5.931-9.173-3.925-21.376 4.608-28.202l205.308-164.263v-96.425c0-11.776 9.557-21.333 21.333-21.333s21.333 9.557 21.333 21.333v106.665c0 6.485-2.944 12.587-8.021 16.64l-198.311 158.674 79.401 123.346h233.595c11.776 0 21.333 9.557 21.333 21.333v127.997c0 7.125-3.541 13.781-9.515 17.749l-35.284 23.551 147.709 84.649c73.129-23.978 138.365-65.322 190.801-119.336l-61.055-113.278h-61.908c-5.675 0-11.093-2.261-15.104-6.229l-74.665-74.665c-8.32-8.363-8.32-21.845 0-30.164 4.181-4.181 9.643-6.229 15.104-6.229s10.923 2.091 15.104 6.229l68.394 68.394h65.834c7.851 0 15.061 4.309 18.773 11.221l59.562 110.59c64.255-80.297 102.91-181.884 102.91-292.474 0-11.776 9.557-21.333 21.333-21.333s21.333 9.557 21.333 21.333c0 131.069-49.962 250.448-131.282 341.113z" />
<glyph unicode="&#xe940;" glyph-name="globe-3" d="M512.213 959.978c-7.467 0-14.89-0.128-22.186-0.469-279.327-11.264-490.006-226.593-490.006-500.842 0-288.201 229.067-522.644 510.613-522.644 283.081 0 513.343 230.475 513.343 513.813 0 281.289-229.579 510.143-511.765 510.143zM43.199 448h236.577c2.432-70.269 15.53-141.69 39.294-213.324h-221.985c-33.066 63.954-52.222 136.399-53.886 213.324zM279.519 490.665h-235.297c5.248 78.674 29.439 151.204 68.776 213.324h207.735c-25.428-68.818-39.209-140.282-41.214-213.324zM364.678 703.989h295.070c27.732-68.69 42.238-140.197 44.457-213.324h-383.983c2.176 73.128 16.682 144.634 44.457 213.324zM320.435 448h383.556c-2.645-70.056-16.554-141.391-42.238-213.324h-299.080c-25.727 71.933-39.635 143.269-42.238 213.324zM744.609 448h236.619c-0.299-76.84-19.327-149.285-52.393-213.324h-223.563c23.807 71.634 36.905 143.055 39.337 213.324zM744.865 490.665c-2.005 73.042-15.786 144.506-41.214 213.324h201.719c40.83-62.461 67.026-135.119 73.853-213.324h-234.358zM874.309 746.654h-188.109c-25.642 57.171-59.474 112.251-101.799 164.516 116.048-18.004 218.359-77.992 289.907-164.516zM523.819 916.673c48.723-53.886 87.292-110.843 116.347-170.020h-255.904c29.098 59.304 67.794 116.39 116.646 170.404 3.755 0.085 7.509 0.256 11.307 0.256 3.925 0 7.723-0.512 11.604-0.64zM440.792 912.065c-42.707-52.521-76.797-107.899-102.567-165.412h-194.893c71.25 87.804 175.651 148.175 297.459 165.412zM121.788 192.011h212.514c27.306-69.8 64.85-139.514 112.379-208.332-135.119 19.071-252.106 97.063-324.893 208.332zM501.931-20.887c-52.137 70.738-92.668 141.946-122.448 212.898h265.376c-29.738-70.909-70.269-142.074-122.32-212.727-4.011-0.128-7.893-0.597-11.903-0.597-2.987 0-5.803 0.384-8.704 0.427zM577.874-15.98c47.401 68.69 84.903 138.319 112.123 207.991h214.135c-72.488-110.459-190.029-188.323-326.258-207.991z" />
<glyph unicode="&#xe941;" glyph-name="certificate-2" d="M1001.926 959.989h-979.874c-11.758 0-21.301-9.543-21.301-21.301v-681.652c0-11.758 9.543-21.301 21.301-21.301h489.937c11.758 0 21.301 9.543 21.301 21.301s-9.543 21.301-21.301 21.301h-468.635v639.048h937.271v-340.825c0-11.758 9.543-21.301 21.301-21.301s21.301 9.543 21.301 21.301v362.128c0 11.758-9.543 21.301-21.301 21.301zM788.91 448.75c-46.991 0-85.206-38.215-85.206-85.206s38.215-85.206 85.206-85.206c46.991 0 85.206 38.215 85.206 85.206s-38.215 85.206-85.206 85.206zM788.91 320.94c-23.517 0-42.604 19.129-42.604 42.604s19.087 42.604 42.604 42.604c23.517 0 42.604-19.129 42.604-42.604s-19.087-42.604-42.604-42.604zM973.382 470.051c-19.342 33.529-55.342 51.678-92.322 53.126-18.788 32.847-53.467 53.382-92.151 53.382s-73.406-20.534-92.151-53.424c-0.171 0-0.34 0-0.554 0-37.704 0-72.511-19.726-91.724-53.084-19.384-33.529-18.916-73.789 0.128-106.508-19.044-32.762-19.47-73.022-0.171-106.508 8.819-15.294 21.216-27.351 35.36-36.298v-261.925c0-8.265 4.772-15.805 12.27-19.299 7.413-3.494 16.317-2.344 22.665 2.94l114.177 95.133 114.177-95.133c3.877-3.238 8.734-4.942 13.633-4.942 3.067 0 6.178 0.682 9.032 2.002 7.498 3.494 12.27 11.035 12.27 19.299v262.649c14.144 8.819 26.627 20.45 35.36 35.574 19.384 33.529 18.916 73.789-0.171 106.508 19.087 32.719 19.512 72.979 0.171 106.508zM895.418 4.271l-92.875 77.41c-7.924 6.561-19.384 6.561-27.308 0l-92.833-77.41v201.471c4.644-0.639 9.159-1.832 13.888-1.832 0.171 0 0.34 0 0.511 0 18.788-32.89 53.467-53.382 92.108-53.382 38.683 0 73.363 20.534 92.194 53.424 4.814 0.128 9.543 1.363 14.315 2.088v-201.769zM936.53 278.337c-13.207-22.921-38.769-35.148-65.055-31.015-9.671 1.406-19.47-4.005-23.091-13.292-9.714-24.838-33.060-40.899-59.474-40.899s-49.718 16.019-59.389 40.814c-3.195 8.265-11.162 13.591-19.853 13.591-1.022 0-2.173-0.085-3.238-0.256-26.244-4.175-51.934 8.18-65.098 31.058s-10.992 51.081 5.667 71.914c6.263 7.796 6.22 18.873 0 26.627-16.658 20.748-18.831 48.951-5.624 71.872 13.164 22.878 38.386 35.063 65.012 30.973 9.884-1.577 19.512 4.005 23.091 13.335 9.671 24.88 32.975 40.899 59.431 40.899s49.761-16.019 59.431-40.814c3.622-9.287 13.463-14.954 23.091-13.335 26.286 4.005 51.848-8.095 65.098-31.058 13.207-22.921 10.992-51.124-5.708-71.872-6.263-7.796-6.263-18.873 0-26.669 16.7-20.748 18.916-48.951 5.708-71.872zM916.719 597.861c11.758 0 21.301 9.543 21.301 21.301v106.508c0 11.758-9.543 21.301-21.301 21.301-58.75 0-106.508 47.801-106.508 106.508 0 11.758-9.543 21.301-21.301 21.301h-553.842c-11.758 0-21.301-9.543-21.301-21.301 0-58.708-47.758-106.508-106.508-106.508-11.758 0-21.301-9.543-21.301-21.301v-255.619c0-11.758 9.543-21.301 21.301-21.301 58.75 0 106.508-47.801 106.508-106.508 0-11.758 9.543-21.301 21.301-21.301h276.921c11.758 0 21.301 9.543 21.301 21.301s-9.543 21.301-21.301 21.301h-257.11c-9.415 65.226-61.136 116.946-126.319 126.276v216.083c65.183 9.33 116.903 61.050 126.319 126.276h514.221c9.415-65.226 61.136-116.946 126.319-126.276v-86.74c0-11.758 9.543-21.301 21.301-21.301z" />
</font>
</defs>
</svg>
